<?xml version="1.0" encoding="UTF-8" standalone="no"?>
<!DOCTYPE svg PUBLIC "-//W3C//DTD SVG 1.1//EN"
 "http://www.w3.org/Graphics/SVG/1.1/DTD/svg11.dtd">
<!-- Generated by graphviz version 2.40.1 (20161225.0304)
 -->
<!-- Title: G Pages: 1 -->
<svg width="537pt" height="464pt"
 viewBox="0.00 0.00 537.35 464.00" xmlns="http://www.w3.org/2000/svg" xmlns:xlink="http://www.w3.org/1999/xlink">
<g id="graph0" class="graph" transform="scale(1 1) rotate(0) translate(4 460)">
<title>G</title>
<polygon fill="#ffffff" stroke="transparent" points="-4,4 -4,-460 533.352,-460 533.352,4 -4,4"/>
<!-- A0 -->
<g id="node1" class="node">
<title>A0</title>
<path fill="#f5f5dc" stroke="#000000" d="M335.6781,-456C335.6781,-456 257.8819,-456 257.8819,-456 251.8819,-456 245.8819,-450 245.8819,-444 245.8819,-444 245.8819,-432 245.8819,-432 245.8819,-426 251.8819,-420 257.8819,-420 257.8819,-420 335.6781,-420 335.6781,-420 341.6781,-420 347.6781,-426 347.6781,-432 347.6781,-432 347.6781,-444 347.6781,-444 347.6781,-450 341.6781,-456 335.6781,-456"/>
<text text-anchor="middle" x="296.78" y="-435" font-family="Helvetica,sans-Serif" font-size="10.00" fill="#000000">org.json&#45;schema</text>
</g>
<!-- A1 -->
<g id="node2" class="node">
<title>A1</title>
<path fill="none" stroke="#000000" d="M183.8891,-372C183.8891,-372 133.6709,-372 133.6709,-372 127.6709,-372 121.6709,-366 121.6709,-360 121.6709,-360 121.6709,-348 121.6709,-348 121.6709,-342 127.6709,-336 133.6709,-336 133.6709,-336 183.8891,-336 183.8891,-336 189.8891,-336 195.8891,-342 195.8891,-348 195.8891,-348 195.8891,-360 195.8891,-360 195.8891,-366 189.8891,-372 183.8891,-372"/>
<text text-anchor="middle" x="158.78" y="-351" font-family="Helvetica,sans-Serif" font-size="10.00" fill="#000000">org.id&#45;utils</text>
</g>
<!-- A0&#45;&gt;A1 -->
<g id="edge1" class="edge">
<title>A0&#45;&gt;A1</title>
<path fill="none" stroke="#000000" d="M245.8267,-428.4767C216.2925,-421.9844 182.9005,-412.652 172.319,-402 167.0712,-396.7172 163.8213,-389.5668 161.8193,-382.3998"/>
<polygon fill="#000000" stroke="#000000" points="159.6915,-372.1029 166.1221,-380.9853 160.7034,-376.9995 161.7152,-381.896 161.7152,-381.896 161.7152,-381.896 160.7034,-376.9995 157.3084,-382.8067 159.6915,-372.1029 159.6915,-372.1029"/>
<text text-anchor="middle" x="205.0105" y="-393" font-family="Helvetica,sans-Serif" font-size="10.00" fill="#000000">schema, types</text>
</g>
<!-- A2 -->
<g id="node3" class="node">
<title>A2</title>
<path fill="none" stroke="#000000" d="M298.5693,-288C298.5693,-288 246.9907,-288 246.9907,-288 240.9907,-288 234.9907,-282 234.9907,-276 234.9907,-276 234.9907,-264 234.9907,-264 234.9907,-258 240.9907,-252 246.9907,-252 246.9907,-252 298.5693,-252 298.5693,-252 304.5693,-252 310.5693,-258 310.5693,-264 310.5693,-264 310.5693,-276 310.5693,-276 310.5693,-282 304.5693,-288 298.5693,-288"/>
<text text-anchor="middle" x="272.78" y="-267" font-family="Helvetica,sans-Serif" font-size="10.00" fill="#000000">org.id&#45;auth</text>
</g>
<!-- A0&#45;&gt;A2 -->
<g id="edge2" class="edge">
<title>A0&#45;&gt;A2</title>
<path fill="none" stroke="#000000" d="M284.9923,-419.7991C277.4323,-407.0013 268.3114,-389.1633 264.319,-372 258.6281,-347.5348 261.8019,-318.9876 265.7857,-298.3261"/>
<polygon fill="#000000" stroke="#000000" points="267.9001,-288.3036 270.2389,-299.0172 266.868,-293.1959 265.8358,-298.0882 265.8358,-298.0882 265.8358,-298.0882 266.868,-293.1959 261.4327,-297.1593 267.9001,-288.3036 267.9001,-288.3036"/>
<text text-anchor="middle" x="296.0105" y="-351" font-family="Helvetica,sans-Serif" font-size="10.00" fill="#000000">schema, types</text>
</g>
<!-- A3 -->
<g id="node4" class="node">
<title>A3</title>
<path fill="none" stroke="#000000" d="M307.0153,-120C307.0153,-120 230.5447,-120 230.5447,-120 224.5447,-120 218.5447,-114 218.5447,-108 218.5447,-108 218.5447,-96 218.5447,-96 218.5447,-90 224.5447,-84 230.5447,-84 230.5447,-84 307.0153,-84 307.0153,-84 313.0153,-84 319.0153,-90 319.0153,-96 319.0153,-96 319.0153,-108 319.0153,-108 319.0153,-114 313.0153,-120 307.0153,-120"/>
<text text-anchor="middle" x="268.78" y="-99" font-family="Helvetica,sans-Serif" font-size="10.00" fill="#000000">org.id&#45;test&#45;setup</text>
</g>
<!-- A0&#45;&gt;A3 -->
<g id="edge3" class="edge">
<title>A0&#45;&gt;A3</title>
<path fill="none" stroke="#000000" d="M347.7442,-424.3362C380.8126,-412.0323 417.78,-390.1854 417.78,-354 417.78,-354 417.78,-354 417.78,-186 417.78,-143.113 370.3588,-121.8812 329.0216,-111.5204"/>
<polygon fill="#000000" stroke="#000000" points="319.2246,-109.2326 329.986,-107.1246 324.0936,-110.3696 328.9626,-111.5067 328.9626,-111.5067 328.9626,-111.5067 324.0936,-110.3696 327.9393,-115.8888 319.2246,-109.2326 319.2246,-109.2326"/>
<text text-anchor="middle" x="450.0105" y="-267" font-family="Helvetica,sans-Serif" font-size="10.00" fill="#000000">schema, types</text>
</g>
<!-- A4 -->
<g id="node5" class="node">
<title>A4</title>
<path fill="none" stroke="#000000" d="M333.9486,-204C333.9486,-204 273.6114,-204 273.6114,-204 267.6114,-204 261.6114,-198 261.6114,-192 261.6114,-192 261.6114,-180 261.6114,-180 261.6114,-174 267.6114,-168 273.6114,-168 273.6114,-168 333.9486,-168 333.9486,-168 339.9486,-168 345.9486,-174 345.9486,-180 345.9486,-180 345.9486,-192 345.9486,-192 345.9486,-198 339.9486,-204 333.9486,-204"/>
<text text-anchor="middle" x="303.78" y="-183" font-family="Helvetica,sans-Serif" font-size="10.00" fill="#000000">org.json&#45;utils</text>
</g>
<!-- A0&#45;&gt;A4 -->
<g id="edge4" class="edge">
<title>A0&#45;&gt;A4</title>
<path fill="none" stroke="#000000" d="M308.4019,-419.7761C315.8553,-406.968 324.8469,-389.1273 328.78,-372 341.457,-316.7963 325.3889,-250.7968 313.7695,-214.1193"/>
<polygon fill="#000000" stroke="#000000" points="310.4905,-204.1535 317.8905,-212.2461 312.0532,-208.903 313.616,-213.6526 313.616,-213.6526 313.616,-213.6526 312.0532,-208.903 309.3414,-215.059 310.4905,-204.1535 310.4905,-204.1535"/>
<text text-anchor="middle" x="365.0105" y="-309" font-family="Helvetica,sans-Serif" font-size="10.00" fill="#000000">schema, types</text>
</g>
<!-- A1&#45;&gt;A2 -->
<g id="edge9" class="edge">
<title>A1&#45;&gt;A2</title>
<path fill="none" stroke="#000000" d="M183.2359,-335.9799C199.6531,-323.883 221.4872,-307.7947 239.4848,-294.5333"/>
<polygon fill="#000000" stroke="#000000" points="247.9712,-288.2801 242.5901,-297.8349 243.9459,-291.2462 239.9207,-294.2122 239.9207,-294.2122 239.9207,-294.2122 243.9459,-291.2462 237.2512,-290.5894 247.9712,-288.2801 247.9712,-288.2801"/>
<text text-anchor="middle" x="231.668" y="-309" font-family="Helvetica,sans-Serif" font-size="10.00" fill="#000000">utils</text>
</g>
<!-- A1&#45;&gt;A3 -->
<g id="edge11" class="edge">
<title>A1&#45;&gt;A3</title>
<path fill="none" stroke="#000000" d="M161.9813,-335.7219C163.6109,-326.7458 165.6866,-315.7832 167.78,-306 172.9452,-281.8608 171.8405,-275.0102 180.78,-252 201.7433,-198.0403 213.2304,-187.1715 243.78,-138 245.7426,-134.841 247.8671,-131.5761 250.0201,-128.3607"/>
<polygon fill="#000000" stroke="#000000" points="255.6941,-120.0724 253.7584,-130.8661 252.8696,-124.1982 250.0451,-128.3241 250.0451,-128.3241 250.0451,-128.3241 252.8696,-124.1982 246.3319,-125.782 255.6941,-120.0724 255.6941,-120.0724"/>
<text text-anchor="middle" x="202.668" y="-225" font-family="Helvetica,sans-Serif" font-size="10.00" fill="#000000">utils</text>
</g>
<!-- A1&#45;&gt;A4 -->
<g id="edge12" class="edge">
<title>A1&#45;&gt;A4</title>
<path fill="none" stroke="#000000" d="M164.349,-335.7939C171.6834,-314.0331 186.2531,-277.3815 208.004,-252 222.571,-235.0015 242.4824,-220.3483 260.3776,-209.197"/>
<polygon fill="#000000" stroke="#000000" points="268.9684,-204.0091 262.7345,-213.0307 264.6883,-206.5938 260.4082,-209.1786 260.4082,-209.1786 260.4082,-209.1786 264.6883,-206.5938 258.0819,-205.3265 268.9684,-204.0091 268.9684,-204.0091"/>
<text text-anchor="middle" x="217.668" y="-267" font-family="Helvetica,sans-Serif" font-size="10.00" fill="#000000">utils</text>
</g>
<!-- A6 -->
<g id="node7" class="node">
<title>A6</title>
<path fill="none" stroke="#000000" d="M294.5603,-36C294.5603,-36 242.9997,-36 242.9997,-36 236.9997,-36 230.9997,-30 230.9997,-24 230.9997,-24 230.9997,-12 230.9997,-12 230.9997,-6 236.9997,0 242.9997,0 242.9997,0 294.5603,0 294.5603,0 300.5603,0 306.5603,-6 306.5603,-12 306.5603,-12 306.5603,-24 306.5603,-24 306.5603,-30 300.5603,-36 294.5603,-36"/>
<text text-anchor="middle" x="268.78" y="-15" font-family="Helvetica,sans-Serif" font-size="10.00" fill="#000000">org.id&#45;core</text>
</g>
<!-- A1&#45;&gt;A6 -->
<g id="edge10" class="edge">
<title>A1&#45;&gt;A6</title>
<path fill="none" stroke="#000000" d="M158.2112,-335.8681C157.583,-290.2702 160.9349,-168.4454 209.78,-84 218.302,-69.2669 230.4917,-54.9298 241.5812,-43.4032"/>
<polygon fill="#000000" stroke="#000000" points="248.6601,-36.2584 244.8185,-46.5294 245.141,-39.8103 241.6218,-43.3622 241.6218,-43.3622 241.6218,-43.3622 245.141,-39.8103 238.4251,-40.1949 248.6601,-36.2584 248.6601,-36.2584"/>
<text text-anchor="middle" x="185.668" y="-183" font-family="Helvetica,sans-Serif" font-size="10.00" fill="#000000">utils</text>
</g>
<!-- A2&#45;&gt;A3 -->
<g id="edge15" class="edge">
<title>A2&#45;&gt;A3</title>
<path fill="none" stroke="#000000" d="M262.0308,-251.9579C255.0117,-239.0869 246.4864,-221.0985 242.783,-204 239.3961,-188.3626 239.7987,-183.7192 242.783,-168 245.2774,-154.8612 250.3335,-140.9931 255.3291,-129.3786"/>
<polygon fill="#000000" stroke="#000000" points="259.4537,-120.218 259.4514,-131.1839 257.4009,-124.7772 255.3481,-129.3364 255.3481,-129.3364 255.3481,-129.3364 257.4009,-124.7772 251.2448,-127.4889 259.4537,-120.218 259.4537,-120.218"/>
<text text-anchor="middle" x="248.7785" y="-183" font-family="Helvetica,sans-Serif" font-size="10.00" fill="#000000">lib</text>
</g>
<!-- A2&#45;&gt;A4 -->
<g id="edge14" class="edge">
<title>A2&#45;&gt;A4</title>
<path fill="none" stroke="#000000" d="M279.5065,-251.7733C283.6095,-240.6557 288.9353,-226.2244 293.5525,-213.7132"/>
<polygon fill="#000000" stroke="#000000" points="297.0666,-204.1912 297.826,-215.1307 295.3354,-208.8819 293.6043,-213.5727 293.6043,-213.5727 293.6043,-213.5727 295.3354,-208.8819 289.3826,-212.0147 297.0666,-204.1912 297.0666,-204.1912"/>
<text text-anchor="middle" x="294.7785" y="-225" font-family="Helvetica,sans-Serif" font-size="10.00" fill="#000000">lib</text>
</g>
<!-- A3&#45;&gt;A6 -->
<g id="edge13" class="edge">
<title>A3&#45;&gt;A6</title>
<path fill="none" stroke="#000000" d="M268.78,-83.7733C268.78,-72.8758 268.78,-58.7946 268.78,-46.4587"/>
<polygon fill="#000000" stroke="#000000" points="268.78,-36.1912 273.2801,-46.1911 268.78,-41.1912 268.7801,-46.1912 268.7801,-46.1912 268.7801,-46.1912 268.78,-41.1912 264.2801,-46.1912 268.78,-36.1912 268.78,-36.1912"/>
<text text-anchor="middle" x="288.787" y="-57" font-family="Helvetica,sans-Serif" font-size="10.00" fill="#000000">tests env</text>
</g>
<!-- A4&#45;&gt;A3 -->
<g id="edge16" class="edge">
<title>A4&#45;&gt;A3</title>
<path fill="none" stroke="#000000" d="M296.1855,-167.7733C291.5532,-156.6557 285.5402,-142.2244 280.3272,-129.7132"/>
<polygon fill="#000000" stroke="#000000" points="276.3597,-120.1912 284.3597,-127.6912 278.2828,-124.8066 280.2059,-129.422 280.2059,-129.422 280.2059,-129.422 278.2828,-124.8066 276.052,-131.1528 276.3597,-120.1912 276.3597,-120.1912"/>
<text text-anchor="middle" x="296.668" y="-141" font-family="Helvetica,sans-Serif" font-size="10.00" fill="#000000">utils</text>
</g>
<!-- A5 -->
<g id="node6" class="node">
<title>A5</title>
<path fill="#f5f5dc" stroke="#000000" d="M506.78,-204C506.78,-204 476.78,-204 476.78,-204 470.78,-204 464.78,-198 464.78,-192 464.78,-192 464.78,-180 464.78,-180 464.78,-174 470.78,-168 476.78,-168 476.78,-168 506.78,-168 506.78,-168 512.78,-168 518.78,-174 518.78,-180 518.78,-180 518.78,-192 518.78,-192 518.78,-198 512.78,-204 506.78,-204"/>
<text text-anchor="middle" x="491.78" y="-183" font-family="Helvetica,sans-Serif" font-size="10.00" fill="#000000">org.id</text>
</g>
<!-- A5&#45;&gt;A3 -->
<g id="edge6" class="edge">
<title>A5&#45;&gt;A3</title>
<path fill="none" stroke="#000000" d="M472.5193,-167.8144C460.7286,-157.6239 444.8571,-145.4942 428.78,-138 397.5958,-123.4637 360.2013,-114.6293 329.4077,-109.3528"/>
<polygon fill="#000000" stroke="#000000" points="319.2362,-107.6966 329.8294,-104.8622 324.1712,-108.5002 329.1062,-109.3038 329.1062,-109.3038 329.1062,-109.3038 324.1712,-108.5002 328.383,-113.7453 319.2362,-107.6966 319.2362,-107.6966"/>
<text text-anchor="middle" x="471.566" y="-141" font-family="Helvetica,sans-Serif" font-size="10.00" fill="#000000">ABI, types</text>
</g>
<!-- A5&#45;&gt;A6 -->
<g id="edge5" class="edge">
<title>A5&#45;&gt;A6</title>
<path fill="none" stroke="#000000" d="M499.2199,-167.9822C501.931,-158.4503 503.1703,-146.9102 497.78,-138 458.5203,-73.1039 371.3114,-41.5962 316.5607,-27.6745"/>
<polygon fill="#000000" stroke="#000000" points="306.7342,-25.2756 317.5161,-23.2757 311.5915,-26.4615 316.4489,-27.6473 316.4489,-27.6473 316.4489,-27.6473 311.5915,-26.4615 315.3816,-32.0189 306.7342,-25.2756 306.7342,-25.2756"/>
<text text-anchor="middle" x="506.566" y="-99" font-family="Helvetica,sans-Serif" font-size="10.00" fill="#000000">ABI, types</text>
</g>
<!-- A7 -->
<g id="node8" class="node">
<title>A7</title>
<path fill="none" stroke="#000000" d="M111.3408,-456C111.3408,-456 12.2192,-456 12.2192,-456 6.2192,-456 .2192,-450 .2192,-444 .2192,-444 .2192,-432 .2192,-432 .2192,-426 6.2192,-420 12.2192,-420 12.2192,-420 111.3408,-420 111.3408,-420 117.3408,-420 123.3408,-426 123.3408,-432 123.3408,-432 123.3408,-444 123.3408,-444 123.3408,-450 117.3408,-456 111.3408,-456"/>
<text text-anchor="middle" x="61.78" y="-435" font-family="Helvetica,sans-Serif" font-size="10.00" fill="#000000">org.id&#45;test&#45;http&#45;server</text>
</g>
<!-- A7&#45;&gt;A1 -->
<g id="edge8" class="edge">
<title>A7&#45;&gt;A1</title>
<path fill="none" stroke="#000000" d="M75.8704,-419.5993C83.5605,-410.1804 93.5738,-398.8636 103.766,-390 108.6269,-385.7727 114.0184,-381.6597 119.4702,-377.8159"/>
<polygon fill="#000000" stroke="#000000" points="128.0194,-372.0197 122.2676,-381.356 123.8809,-374.8255 119.7424,-377.6314 119.7424,-377.6314 119.7424,-377.6314 123.8809,-374.8255 117.2171,-373.9067 128.0194,-372.0197 128.0194,-372.0197"/>
<text text-anchor="middle" x="123.787" y="-393" font-family="Helvetica,sans-Serif" font-size="10.00" fill="#000000">tests env</text>
</g>
<!-- A7&#45;&gt;A3 -->
<g id="edge7" class="edge">
<title>A7&#45;&gt;A3</title>
<path fill="none" stroke="#000000" d="M63.8505,-419.9805C70.2149,-372.5074 93.6461,-242.5418 165.78,-168 182.2273,-151.0036 203.8564,-136.305 223.0465,-125.1212"/>
<polygon fill="#000000" stroke="#000000" points="231.9502,-120.077 225.4676,-128.9216 227.5998,-122.5417 223.2495,-125.0063 223.2495,-125.0063 223.2495,-125.0063 227.5998,-122.5417 221.0313,-121.091 231.9502,-120.077 231.9502,-120.077"/>
<text text-anchor="middle" x="130.787" y="-267" font-family="Helvetica,sans-Serif" font-size="10.00" fill="#000000">tests env</text>
</g>
</g>
</svg>
