<?xml version="1.0" encoding="UTF-8" standalone="no"?>
<!DOCTYPE svg PUBLIC "-//W3C//DTD SVG 1.1//EN"
 "http://www.w3.org/Graphics/SVG/1.1/DTD/svg11.dtd">
<!-- Generated by graphviz version 2.40.1 (20161225.0304)
 -->
<!-- Title: G Pages: 1 -->
<svg width="546pt" height="464pt"
 viewBox="0.00 0.00 546.01 464.00" xmlns="http://www.w3.org/2000/svg" xmlns:xlink="http://www.w3.org/1999/xlink">
<g id="graph0" class="graph" transform="scale(1 1) rotate(0) translate(4 460)">
<title>G</title>
<polygon fill="#ffffff" stroke="transparent" points="-4,4 -4,-460 542.014,-460 542.014,4 -4,4"/>
<!-- A0 -->
<g id="node1" class="node">
<title>A0</title>
<polygon fill="none" stroke="#000000" points="98,-204 48,-204 44,-200 44,-168 94,-168 98,-172 98,-204"/>
<polyline fill="none" stroke="#000000" points="94,-200 44,-200 "/>
<polyline fill="none" stroke="#000000" points="94,-200 94,-168 "/>
<polyline fill="none" stroke="#000000" points="94,-200 98,-204 "/>
<text text-anchor="middle" x="71" y="-183" font-family="Helvetica,sans-Serif" font-size="10.00" fill="#000000">org.id</text>
</g>
<!-- A1 -->
<g id="node2" class="node">
<title>A1</title>
<polygon fill="none" stroke="#000000" points="83.7803,-36 12.2197,-36 8.2197,-32 8.2197,0 79.7803,0 83.7803,-4 83.7803,-36"/>
<polyline fill="none" stroke="#000000" points="79.7803,-32 8.2197,-32 "/>
<polyline fill="none" stroke="#000000" points="79.7803,-32 79.7803,0 "/>
<polyline fill="none" stroke="#000000" points="79.7803,-32 83.7803,-36 "/>
<text text-anchor="middle" x="46" y="-15" font-family="Helvetica,sans-Serif" font-size="10.00" fill="#000000">org.id&#45;core</text>
</g>
<!-- A0&#45;&gt;A1 -->
<g id="edge1" class="edge">
<title>A0&#45;&gt;A1</title>
<path fill="none" stroke="#000000" d="M68.277,-167.7012C63.4553,-135.2999 53.4739,-68.2245 48.6818,-36.0219"/>
<text text-anchor="middle" x="83.786" y="-99" font-family="Helvetica,sans-Serif" font-size="10.00" fill="#000000">ABI, types</text>
</g>
<!-- A2 -->
<g id="node3" class="node">
<title>A2</title>
<polygon fill="none" stroke="#000000" points="253.2353,-120 156.7647,-120 152.7647,-116 152.7647,-84 249.2353,-84 253.2353,-88 253.2353,-120"/>
<polyline fill="none" stroke="#000000" points="249.2353,-116 152.7647,-116 "/>
<polyline fill="none" stroke="#000000" points="249.2353,-116 249.2353,-84 "/>
<polyline fill="none" stroke="#000000" points="249.2353,-116 253.2353,-120 "/>
<text text-anchor="middle" x="203" y="-99" font-family="Helvetica,sans-Serif" font-size="10.00" fill="#000000">org.id&#45;test&#45;setup</text>
</g>
<!-- A0&#45;&gt;A2 -->
<g id="edge2" class="edge">
<title>A0&#45;&gt;A2</title>
<path fill="none" stroke="#000000" d="M70.2454,-167.5533C70.8198,-157.6569 73.2164,-145.9054 80.428,-138 90.4426,-127.0219 123.5563,-117.673 152.8434,-111.2555"/>
<text text-anchor="middle" x="103.786" y="-141" font-family="Helvetica,sans-Serif" font-size="10.00" fill="#000000">ABI, types</text>
</g>
<!-- A2&#45;&gt;A1 -->
<g id="edge10" class="edge">
<title>A2&#45;&gt;A1</title>
<path fill="none" stroke="#000000" d="M169.3196,-83.9799C142.9199,-69.8553 106.3498,-50.2891 79.8952,-36.135"/>
<text text-anchor="middle" x="154.007" y="-57" font-family="Helvetica,sans-Serif" font-size="10.00" fill="#000000">tests env</text>
</g>
<!-- A3 -->
<g id="node4" class="node">
<title>A3</title>
<polygon fill="none" stroke="#000000" points="382.8981,-372 285.1019,-372 281.1019,-368 281.1019,-336 378.8981,-336 382.8981,-340 382.8981,-372"/>
<polyline fill="none" stroke="#000000" points="378.8981,-368 281.1019,-368 "/>
<polyline fill="none" stroke="#000000" points="378.8981,-368 378.8981,-336 "/>
<polyline fill="none" stroke="#000000" points="378.8981,-368 382.8981,-372 "/>
<text text-anchor="middle" x="332" y="-351" font-family="Helvetica,sans-Serif" font-size="10.00" fill="#000000">org.json&#45;schema</text>
</g>
<!-- A3&#45;&gt;A2 -->
<g id="edge4" class="edge">
<title>A3&#45;&gt;A2</title>
<path fill="none" stroke="#000000" d="M352.7915,-335.9127C373.268,-315.7818 399.6449,-282.1137 386,-252 357.2621,-188.5767 286.3543,-143.3814 241.7172,-120.0803"/>
<text text-anchor="middle" x="407.2305" y="-225" font-family="Helvetica,sans-Serif" font-size="10.00" fill="#000000">schema, types</text>
</g>
<!-- A4 -->
<g id="node5" class="node">
<title>A4</title>
<polygon fill="none" stroke="#000000" points="290.7893,-288 219.2107,-288 215.2107,-284 215.2107,-252 286.7893,-252 290.7893,-256 290.7893,-288"/>
<polyline fill="none" stroke="#000000" points="286.7893,-284 215.2107,-284 "/>
<polyline fill="none" stroke="#000000" points="286.7893,-284 286.7893,-252 "/>
<polyline fill="none" stroke="#000000" points="286.7893,-284 290.7893,-288 "/>
<text text-anchor="middle" x="253" y="-267" font-family="Helvetica,sans-Serif" font-size="10.00" fill="#000000">org.id&#45;auth</text>
</g>
<!-- A3&#45;&gt;A4 -->
<g id="edge3" class="edge">
<title>A3&#45;&gt;A4</title>
<path fill="none" stroke="#000000" d="M280.9957,-340.6081C270.1796,-335.3421 260.0687,-328.0556 253.539,-318 247.911,-309.333 247.6086,-297.8005 248.7932,-288.2118"/>
<text text-anchor="middle" x="286.2305" y="-309" font-family="Helvetica,sans-Serif" font-size="10.00" fill="#000000">schema, types</text>
</g>
<!-- A5 -->
<g id="node6" class="node">
<title>A5</title>
<polygon fill="none" stroke="#000000" points="245.1686,-204 164.8314,-204 160.8314,-200 160.8314,-168 241.1686,-168 245.1686,-172 245.1686,-204"/>
<polyline fill="none" stroke="#000000" points="241.1686,-200 160.8314,-200 "/>
<polyline fill="none" stroke="#000000" points="241.1686,-200 241.1686,-168 "/>
<polyline fill="none" stroke="#000000" points="241.1686,-200 245.1686,-204 "/>
<text text-anchor="middle" x="203" y="-183" font-family="Helvetica,sans-Serif" font-size="10.00" fill="#000000">org.json&#45;utils</text>
</g>
<!-- A3&#45;&gt;A5 -->
<g id="edge5" class="edge">
<title>A3&#45;&gt;A5</title>
<path fill="none" stroke="#000000" d="M330.036,-335.7203C326.8987,-313.8869 319.0324,-277.164 300,-252 284.6412,-231.6931 261.1546,-215.4816 241.1394,-204.2075"/>
<text text-anchor="middle" x="350.2305" y="-267" font-family="Helvetica,sans-Serif" font-size="10.00" fill="#000000">schema, types</text>
</g>
<!-- A4&#45;&gt;A2 -->
<g id="edge12" class="edge">
<title>A4&#45;&gt;A2</title>
<path fill="none" stroke="#000000" d="M256.7427,-251.7359C260.2173,-230.8672 263.5538,-195.9887 254,-168 247.7316,-149.6363 234.0521,-132.4139 222.4375,-120.1695"/>
<text text-anchor="middle" x="265.9985" y="-183" font-family="Helvetica,sans-Serif" font-size="10.00" fill="#000000">lib</text>
</g>
<!-- A4&#45;&gt;A5 -->
<g id="edge11" class="edge">
<title>A4&#45;&gt;A5</title>
<path fill="none" stroke="#000000" d="M242.1507,-251.7733C233.7641,-237.6836 222.2094,-218.2718 213.8281,-204.1912"/>
<text text-anchor="middle" x="235.9985" y="-225" font-family="Helvetica,sans-Serif" font-size="10.00" fill="#000000">lib</text>
</g>
<!-- A5&#45;&gt;A2 -->
<g id="edge15" class="edge">
<title>A5&#45;&gt;A2</title>
<path fill="none" stroke="#000000" d="M203,-167.7733C203,-153.6836 203,-134.2718 203,-120.1912"/>
<text text-anchor="middle" x="211.888" y="-141" font-family="Helvetica,sans-Serif" font-size="10.00" fill="#000000">utils</text>
</g>
<!-- A6 -->
<g id="node7" class="node">
<title>A6</title>
<polygon fill="none" stroke="#000000" points="216.1091,-372 145.8909,-372 141.8909,-368 141.8909,-336 212.1091,-336 216.1091,-340 216.1091,-372"/>
<polyline fill="none" stroke="#000000" points="212.1091,-368 141.8909,-368 "/>
<polyline fill="none" stroke="#000000" points="212.1091,-368 212.1091,-336 "/>
<polyline fill="none" stroke="#000000" points="212.1091,-368 216.1091,-372 "/>
<text text-anchor="middle" x="179" y="-351" font-family="Helvetica,sans-Serif" font-size="10.00" fill="#000000">org.id&#45;utils</text>
</g>
<!-- A6&#45;&gt;A1 -->
<g id="edge7" class="edge">
<title>A6&#45;&gt;A1</title>
<path fill="none" stroke="#000000" d="M141.9111,-344.5946C89.4809,-330.1943 0,-301.0669 0,-270 0,-270 0,-270 0,-102 0,-76.8935 16.0041,-52.1799 29.1325,-36.1307"/>
<text text-anchor="middle" x="8.888" y="-183" font-family="Helvetica,sans-Serif" font-size="10.00" fill="#000000">utils</text>
</g>
<!-- A6&#45;&gt;A2 -->
<g id="edge8" class="edge">
<title>A6&#45;&gt;A2</title>
<path fill="none" stroke="#000000" d="M170.8775,-335.7897C156.9367,-301.88 131.814,-227.1364 152,-168 158.2684,-149.6363 171.9479,-132.4139 183.5625,-120.1695"/>
<text text-anchor="middle" x="154.888" y="-225" font-family="Helvetica,sans-Serif" font-size="10.00" fill="#000000">utils</text>
</g>
<!-- A6&#45;&gt;A4 -->
<g id="edge6" class="edge">
<title>A6&#45;&gt;A4</title>
<path fill="none" stroke="#000000" d="M190.4908,-335.9801C196.7607,-326.6655 204.9225,-315.3269 213.224,-306 218.6733,-299.8776 225.0763,-293.7104 231.1334,-288.2527"/>
<text text-anchor="middle" x="222.888" y="-309" font-family="Helvetica,sans-Serif" font-size="10.00" fill="#000000">utils</text>
</g>
<!-- A6&#45;&gt;A5 -->
<g id="edge9" class="edge">
<title>A6&#45;&gt;A5</title>
<path fill="none" stroke="#000000" d="M179.9267,-335.8563C181.1372,-315.3919 183.661,-281.1609 188.224,-252 190.7835,-235.6428 195.006,-217.2824 198.2831,-204.0874"/>
<text text-anchor="middle" x="197.888" y="-267" font-family="Helvetica,sans-Serif" font-size="10.00" fill="#000000">utils</text>
</g>
<!-- A7 -->
<g id="node8" class="node">
<title>A7</title>
<polygon fill="none" stroke="#000000" points="479.5608,-456 360.4392,-456 356.4392,-452 356.4392,-420 475.5608,-420 479.5608,-424 479.5608,-456"/>
<polyline fill="none" stroke="#000000" points="475.5608,-452 356.4392,-452 "/>
<polyline fill="none" stroke="#000000" points="475.5608,-452 475.5608,-420 "/>
<polyline fill="none" stroke="#000000" points="475.5608,-452 479.5608,-456 "/>
<text text-anchor="middle" x="418" y="-435" font-family="Helvetica,sans-Serif" font-size="10.00" fill="#000000">org.id&#45;test&#45;http&#45;server</text>
</g>
<!-- A7&#45;&gt;A2 -->
<g id="edge13" class="edge">
<title>A7&#45;&gt;A2</title>
<path fill="none" stroke="#000000" d="M451.4637,-419.8759C473.3857,-405.3144 498,-382.5972 498,-354 498,-354 498,-354 498,-186 498,-135.7443 337.6326,-113.9322 253.3771,-105.9404"/>
<text text-anchor="middle" x="518.007" y="-267" font-family="Helvetica,sans-Serif" font-size="10.00" fill="#000000">tests env</text>
</g>
<!-- A7&#45;&gt;A6 -->
<g id="edge14" class="edge">
<title>A7&#45;&gt;A6</title>
<path fill="none" stroke="#000000" d="M366.7285,-419.9799C321.4656,-404.0716 256.5631,-381.2607 216.1409,-367.0537"/>
<text text-anchor="middle" x="332.007" y="-393" font-family="Helvetica,sans-Serif" font-size="10.00" fill="#000000">tests env</text>
</g>
</g>
</svg>
