<?xml version="1.0" encoding="UTF-8" standalone="no"?>
<!DOCTYPE svg PUBLIC "-//W3C//DTD SVG 1.1//EN"
 "http://www.w3.org/Graphics/SVG/1.1/DTD/svg11.dtd">
<!-- Generated by graphviz version 2.40.1 (20161225.0304)
 -->
<!-- Title: G Pages: 1 -->
<svg width="546pt" height="464pt"
 viewBox="0.00 0.00 546.01 464.00" xmlns="http://www.w3.org/2000/svg" xmlns:xlink="http://www.w3.org/1999/xlink">
<g id="graph0" class="graph" transform="scale(1 1) rotate(0) translate(4 460)">
<title>G</title>
<polygon fill="#ffffff" stroke="transparent" points="-4,4 -4,-460 542.014,-460 542.014,4 -4,4"/>
<!-- A0 -->
<g id="node1" class="node">
<title>A0</title>
<path fill="none" stroke="#000000" d="M86,-204C86,-204 56,-204 56,-204 50,-204 44,-198 44,-192 44,-192 44,-180 44,-180 44,-174 50,-168 56,-168 56,-168 86,-168 86,-168 92,-168 98,-174 98,-180 98,-180 98,-192 98,-192 98,-198 92,-204 86,-204"/>
<text text-anchor="middle" x="71" y="-183" font-family="Helvetica,sans-Serif" font-size="10.00" fill="#000000">org.id</text>
</g>
<!-- A1 -->
<g id="node2" class="node">
<title>A1</title>
<path fill="none" stroke="#000000" d="M71.7803,-36C71.7803,-36 20.2197,-36 20.2197,-36 14.2197,-36 8.2197,-30 8.2197,-24 8.2197,-24 8.2197,-12 8.2197,-12 8.2197,-6 14.2197,0 20.2197,0 20.2197,0 71.7803,0 71.7803,0 77.7803,0 83.7803,-6 83.7803,-12 83.7803,-12 83.7803,-24 83.7803,-24 83.7803,-30 77.7803,-36 71.7803,-36"/>
<text text-anchor="middle" x="46" y="-15" font-family="Helvetica,sans-Serif" font-size="10.00" fill="#000000">org.id&#45;core</text>
</g>
<!-- A0&#45;&gt;A1 -->
<g id="edge1" class="edge">
<title>A0&#45;&gt;A1</title>
<path fill="none" stroke="#000000" d="M68.277,-167.7012C63.9074,-138.3376 55.3001,-80.4964 50.1579,-45.9411"/>
<polygon fill="#000000" stroke="#000000" points="48.6818,-36.0219 54.6048,-45.2506 49.4178,-40.9675 50.1538,-45.913 50.1538,-45.913 50.1538,-45.913 49.4178,-40.9675 45.7028,-46.5754 48.6818,-36.0219 48.6818,-36.0219"/>
<text text-anchor="middle" x="83.786" y="-99" font-family="Helvetica,sans-Serif" font-size="10.00" fill="#000000">ABI, types</text>
</g>
<!-- A2 -->
<g id="node3" class="node">
<title>A2</title>
<path fill="none" stroke="#000000" d="M241.2353,-120C241.2353,-120 164.7647,-120 164.7647,-120 158.7647,-120 152.7647,-114 152.7647,-108 152.7647,-108 152.7647,-96 152.7647,-96 152.7647,-90 158.7647,-84 164.7647,-84 164.7647,-84 241.2353,-84 241.2353,-84 247.2353,-84 253.2353,-90 253.2353,-96 253.2353,-96 253.2353,-108 253.2353,-108 253.2353,-114 247.2353,-120 241.2353,-120"/>
<text text-anchor="middle" x="203" y="-99" font-family="Helvetica,sans-Serif" font-size="10.00" fill="#000000">org.id&#45;test&#45;setup</text>
</g>
<!-- A0&#45;&gt;A2 -->
<g id="edge2" class="edge">
<title>A0&#45;&gt;A2</title>
<path fill="none" stroke="#000000" d="M70.2454,-167.5533C70.8198,-157.6569 73.2164,-145.9054 80.428,-138 89.3082,-128.2655 116.3504,-119.812 142.7822,-113.5474"/>
<polygon fill="#000000" stroke="#000000" points="152.8434,-111.2555 144.0926,-117.8643 147.9682,-112.3661 143.0931,-113.4767 143.0931,-113.4767 143.0931,-113.4767 147.9682,-112.3661 142.0936,-109.0891 152.8434,-111.2555 152.8434,-111.2555"/>
<text text-anchor="middle" x="103.786" y="-141" font-family="Helvetica,sans-Serif" font-size="10.00" fill="#000000">ABI, types</text>
</g>
<!-- A2&#45;&gt;A1 -->
<g id="edge10" class="edge">
<title>A2&#45;&gt;A1</title>
<path fill="none" stroke="#000000" d="M169.3196,-83.9799C145.8074,-71.4001 114.2279,-54.5041 88.9121,-40.9594"/>
<polygon fill="#000000" stroke="#000000" points="79.8952,-36.135 90.8355,-36.8848 84.3039,-38.4938 88.7126,-40.8526 88.7126,-40.8526 88.7126,-40.8526 84.3039,-38.4938 86.5896,-44.8204 79.8952,-36.135 79.8952,-36.135"/>
<text text-anchor="middle" x="154.007" y="-57" font-family="Helvetica,sans-Serif" font-size="10.00" fill="#000000">tests env</text>
</g>
<!-- A3 -->
<g id="node4" class="node">
<title>A3</title>
<path fill="none" stroke="#000000" d="M370.8981,-372C370.8981,-372 293.1019,-372 293.1019,-372 287.1019,-372 281.1019,-366 281.1019,-360 281.1019,-360 281.1019,-348 281.1019,-348 281.1019,-342 287.1019,-336 293.1019,-336 293.1019,-336 370.8981,-336 370.8981,-336 376.8981,-336 382.8981,-342 382.8981,-348 382.8981,-348 382.8981,-360 382.8981,-360 382.8981,-366 376.8981,-372 370.8981,-372"/>
<text text-anchor="middle" x="332" y="-351" font-family="Helvetica,sans-Serif" font-size="10.00" fill="#000000">org.json&#45;schema</text>
</g>
<!-- A3&#45;&gt;A2 -->
<g id="edge4" class="edge">
<title>A3&#45;&gt;A2</title>
<path fill="none" stroke="#000000" d="M352.7915,-335.9127C373.268,-315.7818 399.6449,-282.1137 386,-252 359.1144,-192.6645 295.3196,-149.2831 250.6573,-124.8577"/>
<polygon fill="#000000" stroke="#000000" points="241.7172,-120.0803 252.6578,-120.8245 246.127,-122.4368 250.5369,-124.7934 250.5369,-124.7934 250.5369,-124.7934 246.127,-122.4368 248.416,-128.7623 241.7172,-120.0803 241.7172,-120.0803"/>
<text text-anchor="middle" x="407.2305" y="-225" font-family="Helvetica,sans-Serif" font-size="10.00" fill="#000000">schema, types</text>
</g>
<!-- A4 -->
<g id="node5" class="node">
<title>A4</title>
<path fill="none" stroke="#000000" d="M278.7893,-288C278.7893,-288 227.2107,-288 227.2107,-288 221.2107,-288 215.2107,-282 215.2107,-276 215.2107,-276 215.2107,-264 215.2107,-264 215.2107,-258 221.2107,-252 227.2107,-252 227.2107,-252 278.7893,-252 278.7893,-252 284.7893,-252 290.7893,-258 290.7893,-264 290.7893,-264 290.7893,-276 290.7893,-276 290.7893,-282 284.7893,-288 278.7893,-288"/>
<text text-anchor="middle" x="253" y="-267" font-family="Helvetica,sans-Serif" font-size="10.00" fill="#000000">org.id&#45;auth</text>
</g>
<!-- A3&#45;&gt;A4 -->
<g id="edge3" class="edge">
<title>A3&#45;&gt;A4</title>
<path fill="none" stroke="#000000" d="M280.9957,-340.6081C270.1796,-335.3421 260.0687,-328.0556 253.539,-318 249.8456,-312.3123 248.4458,-305.3905 248.2546,-298.5938"/>
<polygon fill="#000000" stroke="#000000" points="248.7932,-288.2118 252.769,-298.4315 248.5341,-293.2051 248.2751,-298.1984 248.2751,-298.1984 248.2751,-298.1984 248.5341,-293.2051 243.7811,-297.9652 248.7932,-288.2118 248.7932,-288.2118"/>
<text text-anchor="middle" x="286.2305" y="-309" font-family="Helvetica,sans-Serif" font-size="10.00" fill="#000000">schema, types</text>
</g>
<!-- A5 -->
<g id="node6" class="node">
<title>A5</title>
<path fill="none" stroke="#000000" d="M233.1686,-204C233.1686,-204 172.8314,-204 172.8314,-204 166.8314,-204 160.8314,-198 160.8314,-192 160.8314,-192 160.8314,-180 160.8314,-180 160.8314,-174 166.8314,-168 172.8314,-168 172.8314,-168 233.1686,-168 233.1686,-168 239.1686,-168 245.1686,-174 245.1686,-180 245.1686,-180 245.1686,-192 245.1686,-192 245.1686,-198 239.1686,-204 233.1686,-204"/>
<text text-anchor="middle" x="203" y="-183" font-family="Helvetica,sans-Serif" font-size="10.00" fill="#000000">org.json&#45;utils</text>
</g>
<!-- A3&#45;&gt;A5 -->
<g id="edge5" class="edge">
<title>A3&#45;&gt;A5</title>
<path fill="none" stroke="#000000" d="M330.036,-335.7203C326.8987,-313.8869 319.0324,-277.164 300,-252 286.921,-234.7074 267.9481,-220.3846 250.2439,-209.5516"/>
<polygon fill="#000000" stroke="#000000" points="241.1394,-204.2075 252.0414,-205.3888 245.4514,-206.7386 249.7635,-209.2696 249.7635,-209.2696 249.7635,-209.2696 245.4514,-206.7386 247.4855,-213.1505 241.1394,-204.2075 241.1394,-204.2075"/>
<text text-anchor="middle" x="350.2305" y="-267" font-family="Helvetica,sans-Serif" font-size="10.00" fill="#000000">schema, types</text>
</g>
<!-- A4&#45;&gt;A2 -->
<g id="edge12" class="edge">
<title>A4&#45;&gt;A2</title>
<path fill="none" stroke="#000000" d="M256.7427,-251.7359C260.2173,-230.8672 263.5538,-195.9887 254,-168 248.9559,-153.2229 239.113,-139.185 229.4086,-127.8851"/>
<polygon fill="#000000" stroke="#000000" points="222.4375,-120.1695 232.4806,-124.5727 225.7895,-123.8795 229.1416,-127.5895 229.1416,-127.5895 229.1416,-127.5895 225.7895,-123.8795 225.8026,-130.6063 222.4375,-120.1695 222.4375,-120.1695"/>
<text text-anchor="middle" x="265.9985" y="-183" font-family="Helvetica,sans-Serif" font-size="10.00" fill="#000000">lib</text>
</g>
<!-- A4&#45;&gt;A5 -->
<g id="edge11" class="edge">
<title>A4&#45;&gt;A5</title>
<path fill="none" stroke="#000000" d="M242.1507,-251.7733C235.4021,-240.4355 226.6021,-225.6515 219.0549,-212.9723"/>
<polygon fill="#000000" stroke="#000000" points="213.8281,-204.1912 222.8098,-210.4824 216.3855,-208.4876 218.943,-212.7841 218.943,-212.7841 218.943,-212.7841 216.3855,-208.4876 215.0761,-215.0858 213.8281,-204.1912 213.8281,-204.1912"/>
<text text-anchor="middle" x="235.9985" y="-225" font-family="Helvetica,sans-Serif" font-size="10.00" fill="#000000">lib</text>
</g>
<!-- A5&#45;&gt;A2 -->
<g id="edge15" class="edge">
<title>A5&#45;&gt;A2</title>
<path fill="none" stroke="#000000" d="M203,-167.7733C203,-156.8758 203,-142.7946 203,-130.4587"/>
<polygon fill="#000000" stroke="#000000" points="203,-120.1912 207.5001,-130.1911 203,-125.1912 203.0001,-130.1912 203.0001,-130.1912 203.0001,-130.1912 203,-125.1912 198.5001,-130.1912 203,-120.1912 203,-120.1912"/>
<text text-anchor="middle" x="211.888" y="-141" font-family="Helvetica,sans-Serif" font-size="10.00" fill="#000000">utils</text>
</g>
<!-- A6 -->
<g id="node7" class="node">
<title>A6</title>
<path fill="none" stroke="#000000" d="M204.1091,-372C204.1091,-372 153.8909,-372 153.8909,-372 147.8909,-372 141.8909,-366 141.8909,-360 141.8909,-360 141.8909,-348 141.8909,-348 141.8909,-342 147.8909,-336 153.8909,-336 153.8909,-336 204.1091,-336 204.1091,-336 210.1091,-336 216.1091,-342 216.1091,-348 216.1091,-348 216.1091,-360 216.1091,-360 216.1091,-366 210.1091,-372 204.1091,-372"/>
<text text-anchor="middle" x="179" y="-351" font-family="Helvetica,sans-Serif" font-size="10.00" fill="#000000">org.id&#45;utils</text>
</g>
<!-- A6&#45;&gt;A1 -->
<g id="edge7" class="edge">
<title>A6&#45;&gt;A1</title>
<path fill="none" stroke="#000000" d="M141.9111,-344.5946C89.4809,-330.1943 0,-301.0669 0,-270 0,-270 0,-270 0,-102 0,-80.8164 11.3936,-59.9125 22.84,-44.2568"/>
<polygon fill="#000000" stroke="#000000" points="29.1325,-36.1307 26.5679,-46.7924 26.0712,-40.084 23.0099,-44.0373 23.0099,-44.0373 23.0099,-44.0373 26.0712,-40.084 19.4519,-41.2821 29.1325,-36.1307 29.1325,-36.1307"/>
<text text-anchor="middle" x="8.888" y="-183" font-family="Helvetica,sans-Serif" font-size="10.00" fill="#000000">utils</text>
</g>
<!-- A6&#45;&gt;A2 -->
<g id="edge8" class="edge">
<title>A6&#45;&gt;A2</title>
<path fill="none" stroke="#000000" d="M170.8775,-335.7897C156.9367,-301.88 131.814,-227.1364 152,-168 157.0441,-153.2229 166.887,-139.185 176.5914,-127.8851"/>
<polygon fill="#000000" stroke="#000000" points="183.5625,-120.1695 180.1974,-130.6063 180.2105,-123.8795 176.8584,-127.5895 176.8584,-127.5895 176.8584,-127.5895 180.2105,-123.8795 173.5194,-124.5727 183.5625,-120.1695 183.5625,-120.1695"/>
<text text-anchor="middle" x="154.888" y="-225" font-family="Helvetica,sans-Serif" font-size="10.00" fill="#000000">utils</text>
</g>
<!-- A6&#45;&gt;A4 -->
<g id="edge6" class="edge">
<title>A6&#45;&gt;A4</title>
<path fill="none" stroke="#000000" d="M190.4908,-335.9801C196.7607,-326.6655 204.9225,-315.3269 213.224,-306 216.4595,-302.3648 220.0312,-298.7139 223.6672,-295.205"/>
<polygon fill="#000000" stroke="#000000" points="231.1334,-288.2527 226.8815,-298.3608 227.4741,-291.6601 223.8149,-295.0674 223.8149,-295.0674 223.8149,-295.0674 227.4741,-291.6601 220.7483,-291.7741 231.1334,-288.2527 231.1334,-288.2527"/>
<text text-anchor="middle" x="222.888" y="-309" font-family="Helvetica,sans-Serif" font-size="10.00" fill="#000000">utils</text>
</g>
<!-- A6&#45;&gt;A5 -->
<g id="edge9" class="edge">
<title>A6&#45;&gt;A5</title>
<path fill="none" stroke="#000000" d="M179.9267,-335.8563C181.1372,-315.3919 183.661,-281.1609 188.224,-252 190.1836,-239.4766 193.118,-225.7788 195.8567,-214.1241"/>
<polygon fill="#000000" stroke="#000000" points="198.2831,-204.0874 200.3072,-214.8649 197.1082,-208.9474 195.9332,-213.8074 195.9332,-213.8074 195.9332,-213.8074 197.1082,-208.9474 191.5592,-212.7499 198.2831,-204.0874 198.2831,-204.0874"/>
<text text-anchor="middle" x="197.888" y="-267" font-family="Helvetica,sans-Serif" font-size="10.00" fill="#000000">utils</text>
</g>
<!-- A7 -->
<g id="node8" class="node">
<title>A7</title>
<path fill="none" stroke="#000000" d="M467.5608,-456C467.5608,-456 368.4392,-456 368.4392,-456 362.4392,-456 356.4392,-450 356.4392,-444 356.4392,-444 356.4392,-432 356.4392,-432 356.4392,-426 362.4392,-420 368.4392,-420 368.4392,-420 467.5608,-420 467.5608,-420 473.5608,-420 479.5608,-426 479.5608,-432 479.5608,-432 479.5608,-444 479.5608,-444 479.5608,-450 473.5608,-456 467.5608,-456"/>
<text text-anchor="middle" x="418" y="-435" font-family="Helvetica,sans-Serif" font-size="10.00" fill="#000000">org.id&#45;test&#45;http&#45;server</text>
</g>
<!-- A7&#45;&gt;A2 -->
<g id="edge13" class="edge">
<title>A7&#45;&gt;A2</title>
<path fill="none" stroke="#000000" d="M451.4637,-419.8759C473.3857,-405.3144 498,-382.5972 498,-354 498,-354 498,-354 498,-186 498,-137.7074 349.9166,-115.6797 263.5851,-106.9411"/>
<polygon fill="#000000" stroke="#000000" points="253.3771,-105.9404 263.7685,-102.4376 258.3533,-106.4283 263.3294,-106.9161 263.3294,-106.9161 263.3294,-106.9161 258.3533,-106.4283 262.8904,-111.3946 253.3771,-105.9404 253.3771,-105.9404"/>
<text text-anchor="middle" x="518.007" y="-267" font-family="Helvetica,sans-Serif" font-size="10.00" fill="#000000">tests env</text>
</g>
<!-- A7&#45;&gt;A6 -->
<g id="edge14" class="edge">
<title>A7&#45;&gt;A6</title>
<path fill="none" stroke="#000000" d="M366.7285,-419.9799C324.9134,-405.2834 266.3367,-384.6957 225.7846,-370.4431"/>
<polygon fill="#000000" stroke="#000000" points="216.1409,-367.0537 227.0673,-366.1241 220.858,-368.7116 225.5751,-370.3696 225.5751,-370.3696 225.5751,-370.3696 220.858,-368.7116 224.083,-374.615 216.1409,-367.0537 216.1409,-367.0537"/>
<text text-anchor="middle" x="332.007" y="-393" font-family="Helvetica,sans-Serif" font-size="10.00" fill="#000000">tests env</text>
</g>
</g>
</svg>
