<?xml version="1.0" encoding="UTF-8" standalone="no"?>
<!DOCTYPE svg PUBLIC "-//W3C//DTD SVG 1.1//EN"
 "http://www.w3.org/Graphics/SVG/1.1/DTD/svg11.dtd">
<!-- Generated by graphviz version 2.40.1 (20161225.0304)
 -->
<!-- Title: G Pages: 1 -->
<svg width="712pt" height="548pt"
 viewBox="0.00 0.00 712.01 548.00" xmlns="http://www.w3.org/2000/svg" xmlns:xlink="http://www.w3.org/1999/xlink">
<g id="graph0" class="graph" transform="scale(1 1) rotate(0) translate(4 544)">
<title>G</title>
<polygon fill="#ffffff" stroke="transparent" points="-4,4 -4,-544 708.014,-544 708.014,4 -4,4"/>
<!-- A0 -->
<g id="node1" class="node">
<title>A0</title>
<path fill="#f5f5dc" stroke="#000000" d="M302.8981,-540C302.8981,-540 225.1019,-540 225.1019,-540 219.1019,-540 213.1019,-534 213.1019,-528 213.1019,-528 213.1019,-516 213.1019,-516 213.1019,-510 219.1019,-504 225.1019,-504 225.1019,-504 302.8981,-504 302.8981,-504 308.8981,-504 314.8981,-510 314.8981,-516 314.8981,-516 314.8981,-528 314.8981,-528 314.8981,-534 308.8981,-540 302.8981,-540"/>
<text text-anchor="middle" x="264" y="-519" font-family="Helvetica,sans-Serif" font-size="10.00" fill="#000000">org.json&#45;schema</text>
</g>
<!-- A1 -->
<g id="node2" class="node">
<title>A1</title>
<path fill="none" stroke="#000000" d="M431.1091,-456C431.1091,-456 380.8909,-456 380.8909,-456 374.8909,-456 368.8909,-450 368.8909,-444 368.8909,-444 368.8909,-432 368.8909,-432 368.8909,-426 374.8909,-420 380.8909,-420 380.8909,-420 431.1091,-420 431.1091,-420 437.1091,-420 443.1091,-426 443.1091,-432 443.1091,-432 443.1091,-444 443.1091,-444 443.1091,-450 437.1091,-456 431.1091,-456"/>
<text text-anchor="middle" x="406" y="-435" font-family="Helvetica,sans-Serif" font-size="10.00" fill="#000000">org.id&#45;utils</text>
</g>
<!-- A0&#45;&gt;A1 -->
<g id="edge1" class="edge">
<title>A0&#45;&gt;A1</title>
<path fill="none" stroke="#000000" d="M294.4626,-503.9799C315.4699,-491.553 343.5974,-474.9142 366.3503,-461.4547"/>
<polygon fill="#000000" stroke="#000000" points="375.0978,-456.2801 368.7821,-465.2447 370.7944,-458.8259 366.491,-461.3716 366.491,-461.3716 366.491,-461.3716 370.7944,-458.8259 364.1998,-457.4985 375.0978,-456.2801 375.0978,-456.2801"/>
<text text-anchor="middle" x="375.2305" y="-477" font-family="Helvetica,sans-Serif" font-size="10.00" fill="#000000">schema, types</text>
</g>
<!-- A2 -->
<g id="node3" class="node">
<title>A2</title>
<path fill="none" stroke="#000000" d="M331.7893,-372C331.7893,-372 280.2107,-372 280.2107,-372 274.2107,-372 268.2107,-366 268.2107,-360 268.2107,-360 268.2107,-348 268.2107,-348 268.2107,-342 274.2107,-336 280.2107,-336 280.2107,-336 331.7893,-336 331.7893,-336 337.7893,-336 343.7893,-342 343.7893,-348 343.7893,-348 343.7893,-360 343.7893,-360 343.7893,-366 337.7893,-372 331.7893,-372"/>
<text text-anchor="middle" x="306" y="-351" font-family="Helvetica,sans-Serif" font-size="10.00" fill="#000000">org.id&#45;auth</text>
</g>
<!-- A0&#45;&gt;A2 -->
<g id="edge2" class="edge">
<title>A0&#45;&gt;A2</title>
<path fill="none" stroke="#000000" d="M240.0065,-503.8366C216.4125,-483.6391 186.14,-449.9129 202.539,-420 214.628,-397.9488 237.5634,-382.2012 258.7734,-371.6323"/>
<polygon fill="#000000" stroke="#000000" points="268.0354,-367.2768 260.901,-375.6046 263.5107,-369.4046 258.986,-371.5324 258.986,-371.5324 258.986,-371.5324 263.5107,-369.4046 257.0711,-367.4601 268.0354,-367.2768 268.0354,-367.2768"/>
<text text-anchor="middle" x="235.2305" y="-435" font-family="Helvetica,sans-Serif" font-size="10.00" fill="#000000">schema, types</text>
</g>
<!-- A3 -->
<g id="node4" class="node">
<title>A3</title>
<path fill="none" stroke="#000000" d="M474.2353,-204C474.2353,-204 397.7647,-204 397.7647,-204 391.7647,-204 385.7647,-198 385.7647,-192 385.7647,-192 385.7647,-180 385.7647,-180 385.7647,-174 391.7647,-168 397.7647,-168 397.7647,-168 474.2353,-168 474.2353,-168 480.2353,-168 486.2353,-174 486.2353,-180 486.2353,-180 486.2353,-192 486.2353,-192 486.2353,-198 480.2353,-204 474.2353,-204"/>
<text text-anchor="middle" x="436" y="-183" font-family="Helvetica,sans-Serif" font-size="10.00" fill="#000000">org.id&#45;test&#45;setup</text>
</g>
<!-- A0&#45;&gt;A3 -->
<g id="edge3" class="edge">
<title>A0&#45;&gt;A3</title>
<path fill="none" stroke="#000000" d="M315.1234,-512.763C330.8035,-509.9393 348.1097,-506.8322 364,-504 456.1516,-487.5754 564,-531.6038 564,-438 564,-438 564,-438 564,-270 564,-234.5587 529.2754,-213.2486 495.9989,-200.964"/>
<polygon fill="#000000" stroke="#000000" points="486.2216,-197.585 497.143,-196.5983 490.9474,-199.2183 495.6731,-200.8515 495.6731,-200.8515 495.6731,-200.8515 490.9474,-199.2183 494.2032,-205.1047 486.2216,-197.585 486.2216,-197.585"/>
<text text-anchor="middle" x="596.2305" y="-351" font-family="Helvetica,sans-Serif" font-size="10.00" fill="#000000">schema, types</text>
</g>
<!-- A4 -->
<g id="node5" class="node">
<title>A4</title>
<path fill="none" stroke="#000000" d="M432.1686,-288C432.1686,-288 371.8314,-288 371.8314,-288 365.8314,-288 359.8314,-282 359.8314,-276 359.8314,-276 359.8314,-264 359.8314,-264 359.8314,-258 365.8314,-252 371.8314,-252 371.8314,-252 432.1686,-252 432.1686,-252 438.1686,-252 444.1686,-258 444.1686,-264 444.1686,-264 444.1686,-276 444.1686,-276 444.1686,-282 438.1686,-288 432.1686,-288"/>
<text text-anchor="middle" x="402" y="-267" font-family="Helvetica,sans-Serif" font-size="10.00" fill="#000000">org.json&#45;utils</text>
</g>
<!-- A0&#45;&gt;A4 -->
<g id="edge4" class="edge">
<title>A0&#45;&gt;A4</title>
<path fill="none" stroke="#000000" d="M264.302,-503.6744C265.7507,-475.5789 272.5645,-421.7837 302.539,-390 318.8758,-372.6771 335.301,-387.9286 353,-372 374.9075,-352.2839 387.9662,-320.6463 395.0237,-297.8311"/>
<polygon fill="#000000" stroke="#000000" points="397.8543,-288.0437 399.3989,-298.9003 396.4652,-292.8469 395.076,-297.65 395.076,-297.65 395.076,-297.65 396.4652,-292.8469 390.7532,-296.3998 397.8543,-288.0437 397.8543,-288.0437"/>
<text text-anchor="middle" x="334.2305" y="-393" font-family="Helvetica,sans-Serif" font-size="10.00" fill="#000000">schema, types</text>
</g>
<!-- A5 -->
<g id="node6" class="node">
<title>A5</title>
<path fill="#f5f5dc" stroke="#000000" d="M266.8871,-36C266.8871,-36 199.1129,-36 199.1129,-36 193.1129,-36 187.1129,-30 187.1129,-24 187.1129,-24 187.1129,-12 187.1129,-12 187.1129,-6 193.1129,0 199.1129,0 199.1129,0 266.8871,0 266.8871,0 272.8871,0 278.8871,-6 278.8871,-12 278.8871,-12 278.8871,-24 278.8871,-24 278.8871,-30 272.8871,-36 266.8871,-36"/>
<text text-anchor="middle" x="233" y="-15" font-family="Helvetica,sans-Serif" font-size="10.00" fill="#000000">org.id&#45;resolver</text>
</g>
<!-- A0&#45;&gt;A5 -->
<g id="edge5" class="edge">
<title>A0&#45;&gt;A5</title>
<path fill="none" stroke="#000000" d="M213.0981,-516.3046C136.3828,-506.285 0,-482.2497 0,-438 0,-438 0,-438 0,-102 0,-64.4994 108.1628,-39.1055 177.0981,-26.7293"/>
<polygon fill="#000000" stroke="#000000" points="186.9667,-24.9978 177.8948,-31.1583 182.0419,-25.8619 177.1171,-26.726 177.1171,-26.726 177.1171,-26.726 182.0419,-25.8619 176.3395,-22.2937 186.9667,-24.9978 186.9667,-24.9978"/>
<text text-anchor="middle" x="32.2305" y="-267" font-family="Helvetica,sans-Serif" font-size="10.00" fill="#000000">schema, types</text>
</g>
<!-- A6 -->
<g id="node7" class="node">
<title>A6</title>
<path fill="none" stroke="#000000" d="M173.7714,-288C173.7714,-288 132.2286,-288 132.2286,-288 126.2286,-288 120.2286,-282 120.2286,-276 120.2286,-276 120.2286,-264 120.2286,-264 120.2286,-258 126.2286,-252 132.2286,-252 132.2286,-252 173.7714,-252 173.7714,-252 179.7714,-252 185.7714,-258 185.7714,-264 185.7714,-264 185.7714,-276 185.7714,-276 185.7714,-282 179.7714,-288 173.7714,-288"/>
<text text-anchor="middle" x="153" y="-267" font-family="Helvetica,sans-Serif" font-size="10.00" fill="#000000">org.id&#45;cli</text>
</g>
<!-- A0&#45;&gt;A6 -->
<g id="edge6" class="edge">
<title>A0&#45;&gt;A6</title>
<path fill="none" stroke="#000000" d="M231.9728,-503.8696C224.0323,-498.634 215.8445,-492.5478 209,-486 175.7616,-454.2027 162.6561,-445.7786 148.539,-402 137.4186,-367.5143 141.7267,-325.3068 146.6533,-298.0507"/>
<polygon fill="#000000" stroke="#000000" points="148.6132,-288.0399 151.1079,-298.7182 147.6525,-292.9467 146.6918,-297.8536 146.6918,-297.8536 146.6918,-297.8536 147.6525,-292.9467 142.2756,-296.9889 148.6132,-288.0399 148.6132,-288.0399"/>
<text text-anchor="middle" x="181.2305" y="-393" font-family="Helvetica,sans-Serif" font-size="10.00" fill="#000000">schema, types</text>
</g>
<!-- A1&#45;&gt;A2 -->
<g id="edge12" class="edge">
<title>A1&#45;&gt;A2</title>
<path fill="none" stroke="#000000" d="M395.3265,-419.6264C389.0982,-409.9903 380.5869,-398.4641 371,-390 365.4819,-385.1282 359.1943,-380.6395 352.7543,-376.6054"/>
<polygon fill="#000000" stroke="#000000" points="343.9362,-371.3926 354.8345,-372.6076 348.2404,-373.937 352.5446,-376.4814 352.5446,-376.4814 352.5446,-376.4814 348.2404,-373.937 350.2546,-380.3552 343.9362,-371.3926 343.9362,-371.3926"/>
<text text-anchor="middle" x="390.888" y="-393" font-family="Helvetica,sans-Serif" font-size="10.00" fill="#000000">utils</text>
</g>
<!-- A1&#45;&gt;A3 -->
<g id="edge14" class="edge">
<title>A1&#45;&gt;A3</title>
<path fill="none" stroke="#000000" d="M415.3474,-419.8044C431.2125,-386.8279 460.9555,-314.7806 453,-252 451.3893,-239.2894 448.0998,-225.5235 444.8398,-213.869"/>
<polygon fill="#000000" stroke="#000000" points="442.0254,-204.2503 449.1526,-212.5842 443.4296,-209.0491 444.8337,-213.8479 444.8337,-213.8479 444.8337,-213.8479 443.4296,-209.0491 440.5147,-215.1116 442.0254,-204.2503 442.0254,-204.2503"/>
<text text-anchor="middle" x="459.888" y="-309" font-family="Helvetica,sans-Serif" font-size="10.00" fill="#000000">utils</text>
</g>
<!-- A1&#45;&gt;A4 -->
<g id="edge15" class="edge">
<title>A1&#45;&gt;A4</title>
<path fill="none" stroke="#000000" d="M405.5643,-419.7012C404.8682,-390.4641 403.4999,-332.9945 402.6759,-298.3892"/>
<polygon fill="#000000" stroke="#000000" points="402.4291,-288.0219 407.1659,-297.9119 402.5482,-293.0205 402.6672,-298.0191 402.6672,-298.0191 402.6672,-298.0191 402.5482,-293.0205 398.1685,-298.1262 402.4291,-288.0219 402.4291,-288.0219"/>
<text text-anchor="middle" x="412.888" y="-351" font-family="Helvetica,sans-Serif" font-size="10.00" fill="#000000">utils</text>
</g>
<!-- A1&#45;&gt;A5 -->
<g id="edge16" class="edge">
<title>A1&#45;&gt;A5</title>
<path fill="none" stroke="#000000" d="M368.8115,-426.6979C345.7973,-419.6687 315.6547,-410.3994 289,-402 188.4795,-370.3239 92,-375.3933 92,-270 92,-270 92,-270 92,-102 92,-60.4968 137.6454,-39.0287 176.9946,-28.2327"/>
<polygon fill="#000000" stroke="#000000" points="186.8313,-25.7121 178.2613,-32.5536 181.9878,-26.9533 177.1443,-28.1944 177.1443,-28.1944 177.1443,-28.1944 181.9878,-26.9533 176.0273,-23.8352 186.8313,-25.7121 186.8313,-25.7121"/>
<text text-anchor="middle" x="100.888" y="-225" font-family="Helvetica,sans-Serif" font-size="10.00" fill="#000000">utils</text>
</g>
<!-- A1&#45;&gt;A6 -->
<g id="edge17" class="edge">
<title>A1&#45;&gt;A6</title>
<path fill="none" stroke="#000000" d="M388.4549,-419.9681C377.2768,-409.5657 361.939,-397.1646 346,-390 302.9043,-370.6285 282.37,-395.2272 241.224,-372 209.5852,-354.1397 183.8868,-320.4543 168.5521,-296.6911"/>
<polygon fill="#000000" stroke="#000000" points="163.1915,-288.1231 172.3104,-294.2139 165.8435,-292.3619 168.4955,-296.6007 168.4955,-296.6007 168.4955,-296.6007 165.8435,-292.3619 164.6806,-298.9875 163.1915,-288.1231 163.1915,-288.1231"/>
<text text-anchor="middle" x="249.888" y="-351" font-family="Helvetica,sans-Serif" font-size="10.00" fill="#000000">utils</text>
</g>
<!-- A8 -->
<g id="node9" class="node">
<title>A8</title>
<path fill="none" stroke="#000000" d="M404.7803,-120C404.7803,-120 353.2197,-120 353.2197,-120 347.2197,-120 341.2197,-114 341.2197,-108 341.2197,-108 341.2197,-96 341.2197,-96 341.2197,-90 347.2197,-84 353.2197,-84 353.2197,-84 404.7803,-84 404.7803,-84 410.7803,-84 416.7803,-90 416.7803,-96 416.7803,-96 416.7803,-108 416.7803,-108 416.7803,-114 410.7803,-120 404.7803,-120"/>
<text text-anchor="middle" x="379" y="-99" font-family="Helvetica,sans-Serif" font-size="10.00" fill="#000000">org.id&#45;core</text>
</g>
<!-- A1&#45;&gt;A8 -->
<g id="edge13" class="edge">
<title>A1&#45;&gt;A8</title>
<path fill="none" stroke="#000000" d="M443.2944,-427.1497C475.8752,-415.1077 518,-392.1597 518,-354 518,-354 518,-354 518,-186 518,-173.0195 505.3503,-175.8336 495,-168 476.9959,-154.3736 473.3711,-149.6012 454,-138 445.2644,-132.7683 435.6522,-127.6879 426.3087,-123.0722"/>
<polygon fill="#000000" stroke="#000000" points="417.0972,-118.623 428.0591,-118.9203 421.5996,-120.7977 426.1019,-122.9724 426.1019,-122.9724 426.1019,-122.9724 421.5996,-120.7977 424.1447,-127.0245 417.0972,-118.623 417.0972,-118.623"/>
<text text-anchor="middle" x="526.888" y="-267" font-family="Helvetica,sans-Serif" font-size="10.00" fill="#000000">utils</text>
</g>
<!-- A2&#45;&gt;A3 -->
<g id="edge21" class="edge">
<title>A2&#45;&gt;A3</title>
<path fill="none" stroke="#000000" d="M307.79,-335.9151C310.8931,-313.5955 319.1988,-275.6968 341.003,-252 354.4773,-237.3561 365.2483,-244.7416 382,-234 392.0245,-227.5721 402.0404,-219.3103 410.6754,-211.4589"/>
<polygon fill="#000000" stroke="#000000" points="418.178,-204.4282 413.9583,-214.5497 414.5296,-207.8472 410.8812,-211.2661 410.8812,-211.2661 410.8812,-211.2661 414.5296,-207.8472 407.8041,-207.9826 418.178,-204.4282 418.178,-204.4282"/>
<text text-anchor="middle" x="345.9985" y="-267" font-family="Helvetica,sans-Serif" font-size="10.00" fill="#000000">lib</text>
</g>
<!-- A2&#45;&gt;A4 -->
<g id="edge20" class="edge">
<title>A2&#45;&gt;A4</title>
<path fill="none" stroke="#000000" d="M325.72,-335.8087C335.626,-326.7561 347.8622,-315.7021 359.003,-306 363.2246,-302.3236 367.719,-298.4825 372.1506,-294.7362"/>
<polygon fill="#000000" stroke="#000000" points="379.9872,-288.1512 375.2261,-298.0296 376.1592,-291.3678 372.3312,-294.5844 372.3312,-294.5844 372.3312,-294.5844 376.1592,-291.3678 369.4363,-291.1392 379.9872,-288.1512 379.9872,-288.1512"/>
<text text-anchor="middle" x="363.9985" y="-309" font-family="Helvetica,sans-Serif" font-size="10.00" fill="#000000">lib</text>
</g>
<!-- A2&#45;&gt;A5 -->
<g id="edge22" class="edge">
<title>A2&#45;&gt;A5</title>
<path fill="none" stroke="#000000" d="M279.7925,-335.9004C264.2204,-323.9272 245.1929,-306.9727 233,-288 217.8774,-264.4686 214,-255.9718 214,-228 214,-228 214,-228 214,-102 214,-82.9891 218.687,-62.1411 223.4052,-45.9706"/>
<polygon fill="#000000" stroke="#000000" points="226.4613,-36.086 227.8066,-46.9691 224.9843,-40.8629 223.5074,-45.6398 223.5074,-45.6398 223.5074,-45.6398 224.9843,-40.8629 219.2082,-44.3106 226.4613,-36.086 226.4613,-36.086"/>
<text text-anchor="middle" x="218.9985" y="-183" font-family="Helvetica,sans-Serif" font-size="10.00" fill="#000000">lib</text>
</g>
<!-- A2&#45;&gt;A6 -->
<g id="edge23" class="edge">
<title>A2&#45;&gt;A6</title>
<path fill="none" stroke="#000000" d="M267.844,-336.6272C255.9145,-330.9451 242.7931,-324.4346 231.003,-318 217.1677,-310.4492 202.3517,-301.5492 189.3888,-293.477"/>
<polygon fill="#000000" stroke="#000000" points="180.7454,-288.0475 191.607,-289.5562 184.9794,-290.7072 189.2134,-293.3668 189.2134,-293.3668 189.2134,-293.3668 184.9794,-290.7072 186.8197,-297.1774 180.7454,-288.0475 180.7454,-288.0475"/>
<text text-anchor="middle" x="235.9985" y="-309" font-family="Helvetica,sans-Serif" font-size="10.00" fill="#000000">lib</text>
</g>
<!-- A3&#45;&gt;A5 -->
<g id="edge19" class="edge">
<title>A3&#45;&gt;A5</title>
<path fill="none" stroke="#000000" d="M447.0675,-167.9406C449.9014,-162.3873 452.5551,-156.1207 454,-150 461.3208,-118.9885 450.1442,-104.7935 426,-84 387.3296,-50.6962 331.0329,-33.9728 289.2112,-25.7164"/>
<polygon fill="#000000" stroke="#000000" points="279.1795,-23.8423 289.8359,-21.2554 284.0945,-24.7606 289.0094,-25.6788 289.0094,-25.6788 289.0094,-25.6788 284.0945,-24.7606 288.183,-30.1023 279.1795,-23.8423 279.1795,-23.8423"/>
<text text-anchor="middle" x="474.007" y="-99" font-family="Helvetica,sans-Serif" font-size="10.00" fill="#000000">tests env</text>
</g>
<!-- A3&#45;&gt;A8 -->
<g id="edge18" class="edge">
<title>A3&#45;&gt;A8</title>
<path fill="none" stroke="#000000" d="M423.6318,-167.7733C415.8637,-156.3254 405.7114,-141.3641 397.0524,-128.6036"/>
<polygon fill="#000000" stroke="#000000" points="391.344,-120.1912 400.6827,-125.9392 394.1515,-124.3286 396.9591,-128.466 396.9591,-128.466 396.9591,-128.466 394.1515,-124.3286 393.2354,-130.9927 391.344,-120.1912 391.344,-120.1912"/>
<text text-anchor="middle" x="430.007" y="-141" font-family="Helvetica,sans-Serif" font-size="10.00" fill="#000000">tests env</text>
</g>
<!-- A4&#45;&gt;A3 -->
<g id="edge24" class="edge">
<title>A4&#45;&gt;A3</title>
<path fill="none" stroke="#000000" d="M409.3775,-251.7733C413.8775,-240.6557 419.7187,-226.2244 424.7827,-213.7132"/>
<polygon fill="#000000" stroke="#000000" points="428.6369,-204.1912 429.0562,-215.149 426.7609,-208.8259 424.8849,-213.4607 424.8849,-213.4607 424.8849,-213.4607 426.7609,-208.8259 420.7137,-211.7723 428.6369,-204.1912 428.6369,-204.1912"/>
<text text-anchor="middle" x="429.888" y="-225" font-family="Helvetica,sans-Serif" font-size="10.00" fill="#000000">utils</text>
</g>
<!-- A7 -->
<g id="node8" class="node">
<title>A7</title>
<path fill="#f5f5dc" stroke="#000000" d="M284,-288C284,-288 254,-288 254,-288 248,-288 242,-282 242,-276 242,-276 242,-264 242,-264 242,-258 248,-252 254,-252 254,-252 284,-252 284,-252 290,-252 296,-258 296,-264 296,-264 296,-276 296,-276 296,-282 290,-288 284,-288"/>
<text text-anchor="middle" x="269" y="-267" font-family="Helvetica,sans-Serif" font-size="10.00" fill="#000000">org.id</text>
</g>
<!-- A7&#45;&gt;A3 -->
<g id="edge8" class="edge">
<title>A7&#45;&gt;A3</title>
<path fill="none" stroke="#000000" d="M291.0982,-251.9402C303.807,-242.1647 320.3919,-230.4055 336.428,-222 348.874,-215.4763 362.7659,-209.6386 376.1301,-204.6589"/>
<polygon fill="#000000" stroke="#000000" points="385.74,-201.1871 377.864,-208.8173 381.0375,-202.886 376.3349,-204.585 376.3349,-204.585 376.3349,-204.585 381.0375,-202.886 374.8059,-200.3527 385.74,-201.1871 385.74,-201.1871"/>
<text text-anchor="middle" x="358.786" y="-225" font-family="Helvetica,sans-Serif" font-size="10.00" fill="#000000">ABI, types</text>
</g>
<!-- A7&#45;&gt;A5 -->
<g id="edge9" class="edge">
<title>A7&#45;&gt;A5</title>
<path fill="none" stroke="#000000" d="M266.411,-251.8768C260.2119,-208.4833 244.4802,-98.3612 237.03,-46.21"/>
<polygon fill="#000000" stroke="#000000" points="235.6139,-36.2976 241.483,-45.5607 236.3211,-41.2474 237.0282,-46.1971 237.0282,-46.1971 237.0282,-46.1971 236.3211,-41.2474 232.5735,-46.8335 235.6139,-36.2976 235.6139,-36.2976"/>
<text text-anchor="middle" x="273.786" y="-141" font-family="Helvetica,sans-Serif" font-size="10.00" fill="#000000">ABI, types</text>
</g>
<!-- A7&#45;&gt;A8 -->
<g id="edge7" class="edge">
<title>A7&#45;&gt;A8</title>
<path fill="none" stroke="#000000" d="M279.6457,-251.6845C291.7594,-231.0661 312.3426,-196.6976 331.428,-168 340.2397,-154.7503 350.5086,-140.3808 359.2457,-128.4428"/>
<polygon fill="#000000" stroke="#000000" points="365.2942,-120.2307 362.9871,-130.9511 362.329,-124.2566 359.3638,-128.2825 359.3638,-128.2825 359.3638,-128.2825 362.329,-124.2566 355.7405,-125.6138 365.2942,-120.2307 365.2942,-120.2307"/>
<text text-anchor="middle" x="353.786" y="-183" font-family="Helvetica,sans-Serif" font-size="10.00" fill="#000000">ABI, types</text>
</g>
<!-- A8&#45;&gt;A5 -->
<g id="edge25" class="edge">
<title>A8&#45;&gt;A5</title>
<path fill="none" stroke="#000000" d="M347.6793,-83.9799C325.9104,-71.4553 296.705,-54.6522 273.2157,-41.1378"/>
<polygon fill="#000000" stroke="#000000" points="264.5204,-36.135 275.4324,-37.2215 268.8543,-38.6285 273.1882,-41.122 273.1882,-41.122 273.1882,-41.122 268.8543,-38.6285 270.9441,-45.0225 264.5204,-36.135 264.5204,-36.135"/>
<text text-anchor="middle" x="318.9985" y="-57" font-family="Helvetica,sans-Serif" font-size="10.00" fill="#000000">lib</text>
</g>
<!-- A9 -->
<g id="node10" class="node">
<title>A9</title>
<path fill="none" stroke="#000000" d="M484.5608,-540C484.5608,-540 385.4392,-540 385.4392,-540 379.4392,-540 373.4392,-534 373.4392,-528 373.4392,-528 373.4392,-516 373.4392,-516 373.4392,-510 379.4392,-504 385.4392,-504 385.4392,-504 484.5608,-504 484.5608,-504 490.5608,-504 496.5608,-510 496.5608,-516 496.5608,-516 496.5608,-528 496.5608,-528 496.5608,-534 490.5608,-540 484.5608,-540"/>
<text text-anchor="middle" x="435" y="-519" font-family="Helvetica,sans-Serif" font-size="10.00" fill="#000000">org.id&#45;test&#45;http&#45;server</text>
</g>
<!-- A9&#45;&gt;A1 -->
<g id="edge11" class="edge">
<title>A9&#45;&gt;A1</title>
<path fill="none" stroke="#000000" d="M428.7074,-503.7733C424.8692,-492.6557 419.887,-478.2244 415.5677,-465.7132"/>
<polygon fill="#000000" stroke="#000000" points="412.2803,-456.1912 419.7974,-464.1752 413.912,-460.9174 415.5437,-465.6437 415.5437,-465.6437 415.5437,-465.6437 413.912,-460.9174 411.2901,-467.1123 412.2803,-456.1912 412.2803,-456.1912"/>
<text text-anchor="middle" x="442.007" y="-477" font-family="Helvetica,sans-Serif" font-size="10.00" fill="#000000">tests env</text>
</g>
<!-- A9&#45;&gt;A3 -->
<g id="edge10" class="edge">
<title>A9&#45;&gt;A3</title>
<path fill="none" stroke="#000000" d="M496.669,-511.8302C564.4954,-498.8548 664,-473.7305 664,-438 664,-438 664,-438 664,-270 664,-234.239 563.9926,-209.0016 496.4458,-196.0341"/>
<polygon fill="#000000" stroke="#000000" points="486.3178,-194.1343 496.9761,-191.5552 491.2321,-195.0562 496.1464,-195.9781 496.1464,-195.9781 496.1464,-195.9781 491.2321,-195.0562 495.3167,-200.4009 486.3178,-194.1343 486.3178,-194.1343"/>
<text text-anchor="middle" x="684.007" y="-351" font-family="Helvetica,sans-Serif" font-size="10.00" fill="#000000">tests env</text>
</g>
</g>
</svg>
