<?xml version="1.0" encoding="UTF-8" standalone="no"?>
<!DOCTYPE svg PUBLIC "-//W3C//DTD SVG 1.1//EN"
 "http://www.w3.org/Graphics/SVG/1.1/DTD/svg11.dtd">
<!-- Generated by graphviz version 2.40.1 (20161225.0304)
 -->
<!-- Title: G Pages: 1 -->
<svg width="573pt" height="548pt"
 viewBox="0.00 0.00 572.57 548.00" xmlns="http://www.w3.org/2000/svg" xmlns:xlink="http://www.w3.org/1999/xlink">
<g id="graph0" class="graph" transform="scale(1 1) rotate(0) translate(4 544)">
<title>G</title>
<polygon fill="#ffffff" stroke="transparent" points="-4,4 -4,-544 568.572,-544 568.572,4 -4,4"/>
<!-- A0 -->
<g id="node1" class="node">
<title>A0</title>
<path fill="#f5f5dc" stroke="#000000" d="M258.8981,-540C258.8981,-540 181.1019,-540 181.1019,-540 175.1019,-540 169.1019,-534 169.1019,-528 169.1019,-528 169.1019,-516 169.1019,-516 169.1019,-510 175.1019,-504 181.1019,-504 181.1019,-504 258.8981,-504 258.8981,-504 264.8981,-504 270.8981,-510 270.8981,-516 270.8981,-516 270.8981,-528 270.8981,-528 270.8981,-534 264.8981,-540 258.8981,-540"/>
<text text-anchor="middle" x="220" y="-519" font-family="Helvetica,sans-Serif" font-size="10.00" fill="#000000">org.json&#45;schema</text>
</g>
<!-- A1 -->
<g id="node2" class="node">
<title>A1</title>
<path fill="none" stroke="#000000" d="M324.1091,-456C324.1091,-456 273.8909,-456 273.8909,-456 267.8909,-456 261.8909,-450 261.8909,-444 261.8909,-444 261.8909,-432 261.8909,-432 261.8909,-426 267.8909,-420 273.8909,-420 273.8909,-420 324.1091,-420 324.1091,-420 330.1091,-420 336.1091,-426 336.1091,-432 336.1091,-432 336.1091,-444 336.1091,-444 336.1091,-450 330.1091,-456 324.1091,-456"/>
<text text-anchor="middle" x="299" y="-435" font-family="Helvetica,sans-Serif" font-size="10.00" fill="#000000">org.id&#45;utils</text>
</g>
<!-- A0&#45;&gt;A1 -->
<g id="edge1" class="edge">
<title>A0&#45;&gt;A1</title>
<path fill="none" stroke="#000000" d="M235.4796,-503.9652C243.4273,-494.8525 253.3487,-483.6994 262.539,-474 265.8812,-470.4727 269.4572,-466.8116 273.015,-463.2344"/>
<polygon fill="#000000" stroke="#000000" points="280.2117,-456.0793 276.2929,-466.3211 276.6659,-459.6046 273.1201,-463.1299 273.1201,-463.1299 273.1201,-463.1299 276.6659,-459.6046 269.9473,-459.9387 280.2117,-456.0793 280.2117,-456.0793"/>
<text text-anchor="middle" x="294.2305" y="-477" font-family="Helvetica,sans-Serif" font-size="10.00" fill="#000000">schema, types</text>
</g>
<!-- A2 -->
<g id="node3" class="node">
<title>A2</title>
<path fill="none" stroke="#000000" d="M191.7893,-372C191.7893,-372 140.2107,-372 140.2107,-372 134.2107,-372 128.2107,-366 128.2107,-360 128.2107,-360 128.2107,-348 128.2107,-348 128.2107,-342 134.2107,-336 140.2107,-336 140.2107,-336 191.7893,-336 191.7893,-336 197.7893,-336 203.7893,-342 203.7893,-348 203.7893,-348 203.7893,-360 203.7893,-360 203.7893,-366 197.7893,-372 191.7893,-372"/>
<text text-anchor="middle" x="166" y="-351" font-family="Helvetica,sans-Serif" font-size="10.00" fill="#000000">org.id&#45;auth</text>
</g>
<!-- A0&#45;&gt;A2 -->
<g id="edge2" class="edge">
<title>A0&#45;&gt;A2</title>
<path fill="none" stroke="#000000" d="M187.1733,-503.9563C170.1601,-492.6387 151.0051,-476.3326 141.539,-456 130.3415,-431.9485 139.8109,-402.2378 150.0509,-381.0985"/>
<polygon fill="#000000" stroke="#000000" points="154.7386,-372.0401 154.1391,-382.9896 152.4405,-376.4807 150.1425,-380.9214 150.1425,-380.9214 150.1425,-380.9214 152.4405,-376.4807 146.1459,-378.8532 154.7386,-372.0401 154.7386,-372.0401"/>
<text text-anchor="middle" x="174.2305" y="-435" font-family="Helvetica,sans-Serif" font-size="10.00" fill="#000000">schema, types</text>
</g>
<!-- A3 -->
<g id="node4" class="node">
<title>A3</title>
<path fill="none" stroke="#000000" d="M339.2353,-204C339.2353,-204 262.7647,-204 262.7647,-204 256.7647,-204 250.7647,-198 250.7647,-192 250.7647,-192 250.7647,-180 250.7647,-180 250.7647,-174 256.7647,-168 262.7647,-168 262.7647,-168 339.2353,-168 339.2353,-168 345.2353,-168 351.2353,-174 351.2353,-180 351.2353,-180 351.2353,-192 351.2353,-192 351.2353,-198 345.2353,-204 339.2353,-204"/>
<text text-anchor="middle" x="301" y="-183" font-family="Helvetica,sans-Serif" font-size="10.00" fill="#000000">org.id&#45;test&#45;setup</text>
</g>
<!-- A0&#45;&gt;A3 -->
<g id="edge3" class="edge">
<title>A0&#45;&gt;A3</title>
<path fill="none" stroke="#000000" d="M271.2465,-517.2339C315.9644,-512.0569 376.3777,-502.2697 394,-486 410.3276,-470.9256 408,-460.2222 408,-438 408,-438 408,-438 408,-312 408,-268.4547 370.41,-232.2642 339.7902,-210.0079"/>
<polygon fill="#000000" stroke="#000000" points="331.3757,-204.1054 342.1466,-206.1641 335.469,-206.9767 339.5624,-209.8481 339.5624,-209.8481 339.5624,-209.8481 335.469,-206.9767 336.9782,-213.5321 331.3757,-204.1054 331.3757,-204.1054"/>
<text text-anchor="middle" x="440.2305" y="-351" font-family="Helvetica,sans-Serif" font-size="10.00" fill="#000000">schema, types</text>
</g>
<!-- A4 -->
<g id="node5" class="node">
<title>A4</title>
<path fill="none" stroke="#000000" d="M276.1686,-288C276.1686,-288 215.8314,-288 215.8314,-288 209.8314,-288 203.8314,-282 203.8314,-276 203.8314,-276 203.8314,-264 203.8314,-264 203.8314,-258 209.8314,-252 215.8314,-252 215.8314,-252 276.1686,-252 276.1686,-252 282.1686,-252 288.1686,-258 288.1686,-264 288.1686,-264 288.1686,-276 288.1686,-276 288.1686,-282 282.1686,-288 276.1686,-288"/>
<text text-anchor="middle" x="246" y="-267" font-family="Helvetica,sans-Serif" font-size="10.00" fill="#000000">org.json&#45;utils</text>
</g>
<!-- A0&#45;&gt;A4 -->
<g id="edge4" class="edge">
<title>A0&#45;&gt;A4</title>
<path fill="none" stroke="#000000" d="M217.8672,-503.9872C215.2263,-478.5027 211.6389,-430.5104 216.539,-390 220.421,-357.9059 229.9418,-322.0137 237.1173,-297.9166"/>
<polygon fill="#000000" stroke="#000000" points="240.1229,-288.0442 241.5153,-298.9214 238.6666,-292.8275 237.2103,-297.6107 237.2103,-297.6107 237.2103,-297.6107 238.6666,-292.8275 232.9054,-296.3001 240.1229,-288.0442 240.1229,-288.0442"/>
<text text-anchor="middle" x="248.2305" y="-393" font-family="Helvetica,sans-Serif" font-size="10.00" fill="#000000">schema, types</text>
</g>
<!-- A5 -->
<g id="node6" class="node">
<title>A5</title>
<path fill="#f5f5dc" stroke="#000000" d="M211.8871,-36C211.8871,-36 144.1129,-36 144.1129,-36 138.1129,-36 132.1129,-30 132.1129,-24 132.1129,-24 132.1129,-12 132.1129,-12 132.1129,-6 138.1129,0 144.1129,0 144.1129,0 211.8871,0 211.8871,0 217.8871,0 223.8871,-6 223.8871,-12 223.8871,-12 223.8871,-24 223.8871,-24 223.8871,-30 217.8871,-36 211.8871,-36"/>
<text text-anchor="middle" x="178" y="-15" font-family="Helvetica,sans-Serif" font-size="10.00" fill="#000000">org.id&#45;resolver</text>
</g>
<!-- A0&#45;&gt;A5 -->
<g id="edge5" class="edge">
<title>A0&#45;&gt;A5</title>
<path fill="none" stroke="#000000" d="M168.9746,-513.0579C103.9844,-500.1892 0,-473.9778 0,-438 0,-438 0,-438 0,-102 0,-74.633 69.685,-48.6275 121.8525,-32.9936"/>
<polygon fill="#000000" stroke="#000000" points="131.6973,-30.1025 123.3704,-37.238 126.8999,-31.5114 122.1024,-32.9203 122.1024,-32.9203 122.1024,-32.9203 126.8999,-31.5114 120.8344,-28.6026 131.6973,-30.1025 131.6973,-30.1025"/>
<text text-anchor="middle" x="32.2305" y="-267" font-family="Helvetica,sans-Serif" font-size="10.00" fill="#000000">schema, types</text>
</g>
<!-- A1&#45;&gt;A2 -->
<g id="edge11" class="edge">
<title>A1&#45;&gt;A2</title>
<path fill="none" stroke="#000000" d="M261.8345,-430.7541C231.4763,-424.1289 191.7675,-413.6153 180.224,-402 174.8325,-396.5749 171.4668,-389.2077 169.3714,-381.8746"/>
<polygon fill="#000000" stroke="#000000" points="167.2303,-372.0817 173.7625,-380.8898 168.2983,-376.9663 169.3663,-381.851 169.3663,-381.851 169.3663,-381.851 168.2983,-376.9663 164.9701,-382.8122 167.2303,-372.0817 167.2303,-372.0817"/>
<text text-anchor="middle" x="188.888" y="-393" font-family="Helvetica,sans-Serif" font-size="10.00" fill="#000000">utils</text>
</g>
<!-- A1&#45;&gt;A3 -->
<g id="edge13" class="edge">
<title>A1&#45;&gt;A3</title>
<path fill="none" stroke="#000000" d="M299.7,-419.7943C300.1733,-406.5421 300.7552,-388.1618 301,-372 301.8444,-316.2579 301.5499,-251.1082 301.2686,-214.5902"/>
<polygon fill="#000000" stroke="#000000" points="301.183,-204.2183 305.7655,-214.1808 301.2243,-209.2181 301.2656,-214.2179 301.2656,-214.2179 301.2656,-214.2179 301.2243,-209.2181 296.7658,-214.2551 301.183,-204.2183 301.183,-204.2183"/>
<text text-anchor="middle" x="309.888" y="-309" font-family="Helvetica,sans-Serif" font-size="10.00" fill="#000000">utils</text>
</g>
<!-- A1&#45;&gt;A4 -->
<g id="edge14" class="edge">
<title>A1&#45;&gt;A4</title>
<path fill="none" stroke="#000000" d="M293.8118,-419.7265C291.2276,-410.7515 288.0174,-399.7885 285,-390 275.2318,-358.3112 263.3794,-322.1406 255.3231,-297.8684"/>
<polygon fill="#000000" stroke="#000000" points="252.1199,-288.2422 259.5472,-296.3098 253.6986,-292.9864 255.2773,-297.7307 255.2773,-297.7307 255.2773,-297.7307 253.6986,-292.9864 251.0075,-299.1515 252.1199,-288.2422 252.1199,-288.2422"/>
<text text-anchor="middle" x="287.888" y="-351" font-family="Helvetica,sans-Serif" font-size="10.00" fill="#000000">utils</text>
</g>
<!-- A1&#45;&gt;A5 -->
<g id="edge15" class="edge">
<title>A1&#45;&gt;A5</title>
<path fill="none" stroke="#000000" d="M261.5139,-430.7849C201.8621,-418.2187 92,-390.1658 92,-354 92,-354 92,-354 92,-102 92,-76.319 111.8683,-55.919 132.5053,-41.6564"/>
<polygon fill="#000000" stroke="#000000" points="141.0292,-36.1129 135.0994,-45.3373 136.8376,-38.8389 132.646,-41.5649 132.646,-41.5649 132.646,-41.5649 136.8376,-38.8389 130.1927,-37.7925 141.0292,-36.1129 141.0292,-36.1129"/>
<text text-anchor="middle" x="100.888" y="-225" font-family="Helvetica,sans-Serif" font-size="10.00" fill="#000000">utils</text>
</g>
<!-- A7 -->
<g id="node8" class="node">
<title>A7</title>
<path fill="none" stroke="#000000" d="M375.7803,-120C375.7803,-120 324.2197,-120 324.2197,-120 318.2197,-120 312.2197,-114 312.2197,-108 312.2197,-108 312.2197,-96 312.2197,-96 312.2197,-90 318.2197,-84 324.2197,-84 324.2197,-84 375.7803,-84 375.7803,-84 381.7803,-84 387.7803,-90 387.7803,-96 387.7803,-96 387.7803,-108 387.7803,-108 387.7803,-114 381.7803,-120 375.7803,-120"/>
<text text-anchor="middle" x="350" y="-99" font-family="Helvetica,sans-Serif" font-size="10.00" fill="#000000">org.id&#45;core</text>
</g>
<!-- A1&#45;&gt;A7 -->
<g id="edge12" class="edge">
<title>A1&#45;&gt;A7</title>
<path fill="none" stroke="#000000" d="M307.2298,-419.9067C309.6164,-414.2464 312.0907,-407.9293 314,-402 341.6919,-316.005 345.5797,-293.1854 360,-204 364.6955,-174.9598 370.7692,-166.8461 365,-138 364.4585,-135.2924 363.7088,-132.5339 362.8311,-129.8093"/>
<polygon fill="#000000" stroke="#000000" points="359.2342,-120.2427 366.9657,-128.0192 360.9939,-124.9228 362.7536,-129.603 362.7536,-129.603 362.7536,-129.603 360.9939,-124.9228 358.5414,-131.1867 359.2342,-120.2427 359.2342,-120.2427"/>
<text text-anchor="middle" x="359.888" y="-267" font-family="Helvetica,sans-Serif" font-size="10.00" fill="#000000">utils</text>
</g>
<!-- A2&#45;&gt;A3 -->
<g id="edge19" class="edge">
<title>A2&#45;&gt;A3</title>
<path fill="none" stroke="#000000" d="M164.9787,-335.6455C164.6881,-313.7386 167.2392,-276.9432 185.003,-252 198.9357,-232.4361 220.6042,-217.8945 241.4593,-207.5155"/>
<polygon fill="#000000" stroke="#000000" points="250.6367,-203.1785 243.5181,-211.5198 246.116,-205.3149 241.5954,-207.4513 241.5954,-207.4513 241.5954,-207.4513 246.116,-205.3149 239.6727,-203.3827 250.6367,-203.1785 250.6367,-203.1785"/>
<text text-anchor="middle" x="189.9985" y="-267" font-family="Helvetica,sans-Serif" font-size="10.00" fill="#000000">lib</text>
</g>
<!-- A2&#45;&gt;A4 -->
<g id="edge18" class="edge">
<title>A2&#45;&gt;A4</title>
<path fill="none" stroke="#000000" d="M181.6437,-335.955C189.6769,-326.8396 199.7068,-315.6873 209.003,-306 212.3926,-302.4678 216.0202,-298.8039 219.6298,-295.2253"/>
<polygon fill="#000000" stroke="#000000" points="226.9319,-288.0691 222.9396,-298.2824 223.3609,-291.5688 219.7898,-295.0685 219.7898,-295.0685 219.7898,-295.0685 223.3609,-291.5688 216.6401,-291.8545 226.9319,-288.0691 226.9319,-288.0691"/>
<text text-anchor="middle" x="213.9985" y="-309" font-family="Helvetica,sans-Serif" font-size="10.00" fill="#000000">lib</text>
</g>
<!-- A2&#45;&gt;A5 -->
<g id="edge20" class="edge">
<title>A2&#45;&gt;A5</title>
<path fill="none" stroke="#000000" d="M162.9659,-335.7368C162.1586,-330.0696 161.4003,-323.7914 161,-318 160.6323,-312.6794 160.8428,-311.331 161,-306 163.8117,-210.6491 171.8489,-97.7721 175.7803,-46.2204"/>
<polygon fill="#000000" stroke="#000000" points="176.5535,-36.1791 180.2723,-46.4951 176.1696,-41.1643 175.7856,-46.1496 175.7856,-46.1496 175.7856,-46.1496 176.1696,-41.1643 171.2989,-45.804 176.5535,-36.1791 176.5535,-36.1791"/>
<text text-anchor="middle" x="171.9985" y="-183" font-family="Helvetica,sans-Serif" font-size="10.00" fill="#000000">lib</text>
</g>
<!-- A3&#45;&gt;A5 -->
<g id="edge17" class="edge">
<title>A3&#45;&gt;A5</title>
<path fill="none" stroke="#000000" d="M287.6027,-167.7012C265.7336,-137.8313 222.2898,-78.4934 197.1637,-44.1748"/>
<polygon fill="#000000" stroke="#000000" points="191.1946,-36.0219 200.7329,-41.4322 194.1483,-40.0562 197.102,-44.0906 197.102,-44.0906 197.102,-44.0906 194.1483,-40.0562 193.4712,-46.7489 191.1946,-36.0219 191.1946,-36.0219"/>
<text text-anchor="middle" x="271.007" y="-99" font-family="Helvetica,sans-Serif" font-size="10.00" fill="#000000">tests env</text>
</g>
<!-- A3&#45;&gt;A7 -->
<g id="edge16" class="edge">
<title>A3&#45;&gt;A7</title>
<path fill="none" stroke="#000000" d="M309.2875,-167.8938C313.6565,-158.7629 319.2833,-147.6151 324.986,-138 326.7877,-134.9623 328.7581,-131.8429 330.7769,-128.7713"/>
<polygon fill="#000000" stroke="#000000" points="336.4947,-120.3488 334.6011,-131.15 333.6863,-124.4856 330.878,-128.6224 330.878,-128.6224 330.878,-128.6224 333.6863,-124.4856 327.1548,-126.0949 336.4947,-120.3488 336.4947,-120.3488"/>
<text text-anchor="middle" x="344.007" y="-141" font-family="Helvetica,sans-Serif" font-size="10.00" fill="#000000">tests env</text>
</g>
<!-- A4&#45;&gt;A3 -->
<g id="edge21" class="edge">
<title>A4&#45;&gt;A3</title>
<path fill="none" stroke="#000000" d="M257.9342,-251.7733C265.4298,-240.3254 275.2259,-225.3641 283.581,-212.6036"/>
<polygon fill="#000000" stroke="#000000" points="289.0891,-204.1912 287.376,-215.0224 286.3502,-208.3743 283.6112,-212.5574 283.6112,-212.5574 283.6112,-212.5574 286.3502,-208.3743 279.8464,-210.0923 289.0891,-204.1912 289.0891,-204.1912"/>
<text text-anchor="middle" x="284.888" y="-225" font-family="Helvetica,sans-Serif" font-size="10.00" fill="#000000">utils</text>
</g>
<!-- A6 -->
<g id="node7" class="node">
<title>A6</title>
<path fill="#f5f5dc" stroke="#000000" d="M525,-288C525,-288 495,-288 495,-288 489,-288 483,-282 483,-276 483,-276 483,-264 483,-264 483,-258 489,-252 495,-252 495,-252 525,-252 525,-252 531,-252 537,-258 537,-264 537,-264 537,-276 537,-276 537,-282 531,-288 525,-288"/>
<text text-anchor="middle" x="510" y="-267" font-family="Helvetica,sans-Serif" font-size="10.00" fill="#000000">org.id</text>
</g>
<!-- A6&#45;&gt;A3 -->
<g id="edge7" class="edge">
<title>A6&#45;&gt;A3</title>
<path fill="none" stroke="#000000" d="M482.9848,-253.412C463.2617,-241.4872 438.1094,-226.7142 427,-222 406.1181,-213.139 382.3884,-205.7193 361.197,-199.9623"/>
<polygon fill="#000000" stroke="#000000" points="351.3411,-197.3531 362.1598,-195.5623 356.1746,-198.6328 361.0081,-199.9124 361.0081,-199.9124 361.0081,-199.9124 356.1746,-198.6328 359.8564,-204.2625 351.3411,-197.3531 351.3411,-197.3531"/>
<text text-anchor="middle" x="471.786" y="-225" font-family="Helvetica,sans-Serif" font-size="10.00" fill="#000000">ABI, types</text>
</g>
<!-- A6&#45;&gt;A5 -->
<g id="edge8" class="edge">
<title>A6&#45;&gt;A5</title>
<path fill="none" stroke="#000000" d="M521.0471,-251.9386C532.5179,-230.6424 546.8681,-194.7626 532,-168 472.8762,-61.5771 318.3047,-30.6584 234.3051,-21.6767"/>
<polygon fill="#000000" stroke="#000000" points="224.1748,-20.6634 234.573,-17.1811 229.15,-21.1611 234.1251,-21.6588 234.1251,-21.6588 234.1251,-21.6588 229.15,-21.1611 233.6772,-26.1364 224.1748,-20.6634 224.1748,-20.6634"/>
<text text-anchor="middle" x="541.786" y="-141" font-family="Helvetica,sans-Serif" font-size="10.00" fill="#000000">ABI, types</text>
</g>
<!-- A6&#45;&gt;A7 -->
<g id="edge6" class="edge">
<title>A6&#45;&gt;A7</title>
<path fill="none" stroke="#000000" d="M507.3027,-251.5791C505.286,-242.1548 501.833,-230.8391 496,-222 468.8767,-180.8988 423.3733,-146.7442 390.3645,-125.5185"/>
<polygon fill="#000000" stroke="#000000" points="381.8367,-120.1422 392.6958,-121.6687 386.0663,-122.8088 390.2959,-125.4753 390.2959,-125.4753 390.2959,-125.4753 386.0663,-122.8088 387.896,-129.282 381.8367,-120.1422 381.8367,-120.1422"/>
<text text-anchor="middle" x="504.786" y="-183" font-family="Helvetica,sans-Serif" font-size="10.00" fill="#000000">ABI, types</text>
</g>
<!-- A7&#45;&gt;A5 -->
<g id="edge22" class="edge">
<title>A7&#45;&gt;A5</title>
<path fill="none" stroke="#000000" d="M313.1017,-83.9799C287.1172,-71.2898 252.1388,-54.2073 224.2838,-40.6037"/>
<polygon fill="#000000" stroke="#000000" points="215.1336,-36.135 226.0941,-36.4799 219.6265,-38.3292 224.1193,-40.5234 224.1193,-40.5234 224.1193,-40.5234 219.6265,-38.3292 222.1445,-44.567 215.1336,-36.135 215.1336,-36.135"/>
<text text-anchor="middle" x="278.9985" y="-57" font-family="Helvetica,sans-Serif" font-size="10.00" fill="#000000">lib</text>
</g>
<!-- A8 -->
<g id="node9" class="node">
<title>A8</title>
<path fill="none" stroke="#000000" d="M478.5608,-540C478.5608,-540 379.4392,-540 379.4392,-540 373.4392,-540 367.4392,-534 367.4392,-528 367.4392,-528 367.4392,-516 367.4392,-516 367.4392,-510 373.4392,-504 379.4392,-504 379.4392,-504 478.5608,-504 478.5608,-504 484.5608,-504 490.5608,-510 490.5608,-516 490.5608,-516 490.5608,-528 490.5608,-528 490.5608,-534 484.5608,-540 478.5608,-540"/>
<text text-anchor="middle" x="429" y="-519" font-family="Helvetica,sans-Serif" font-size="10.00" fill="#000000">org.id&#45;test&#45;http&#45;server</text>
</g>
<!-- A8&#45;&gt;A1 -->
<g id="edge10" class="edge">
<title>A8&#45;&gt;A1</title>
<path fill="none" stroke="#000000" d="M401.1117,-503.9799C382.0499,-491.663 356.5844,-475.2084 335.8532,-461.8128"/>
<polygon fill="#000000" stroke="#000000" points="327.2907,-456.2801 338.1321,-457.9277 331.4903,-458.9937 335.6899,-461.7073 335.6899,-461.7073 335.6899,-461.7073 331.4903,-458.9937 333.2476,-465.487 327.2907,-456.2801 327.2907,-456.2801"/>
<text text-anchor="middle" x="391.007" y="-477" font-family="Helvetica,sans-Serif" font-size="10.00" fill="#000000">tests env</text>
</g>
<!-- A8&#45;&gt;A3 -->
<g id="edge9" class="edge">
<title>A8&#45;&gt;A3</title>
<path fill="none" stroke="#000000" d="M440.5011,-503.9781C460.4263,-470.3784 497.2862,-396.1255 476,-336 453.5073,-272.4666 431.6128,-260.0741 376,-222 368.976,-217.1912 361.2109,-212.6884 353.4183,-208.6057"/>
<polygon fill="#000000" stroke="#000000" points="344.3006,-204.0128 355.256,-204.4928 348.7661,-206.2622 353.2315,-208.5117 353.2315,-208.5117 353.2315,-208.5117 348.7661,-206.2622 351.207,-212.5306 344.3006,-204.0128 344.3006,-204.0128"/>
<text text-anchor="middle" x="502.007" y="-351" font-family="Helvetica,sans-Serif" font-size="10.00" fill="#000000">tests env</text>
</g>
</g>
</svg>
